<?xml version="1.0" encoding="utf-8" standalone="no"?>
<!DOCTYPE svg PUBLIC "-//W3C//DTD SVG 1.1//EN"
  "http://www.w3.org/Graphics/SVG/1.1/DTD/svg11.dtd">
<!-- Created with matplotlib (https://matplotlib.org/) -->
<svg height="410.138359pt" version="1.1" viewBox="0 0 725.593437 410.138359" width="725.593437pt" xmlns="http://www.w3.org/2000/svg" xmlns:xlink="http://www.w3.org/1999/xlink">
 <metadata>
  <rdf:RDF xmlns:cc="http://creativecommons.org/ns#" xmlns:dc="http://purl.org/dc/elements/1.1/" xmlns:rdf="http://www.w3.org/1999/02/22-rdf-syntax-ns#">
   <cc:Work>
    <dc:type rdf:resource="http://purl.org/dc/dcmitype/StillImage"/>
    <dc:date>2021-06-04T10:42:47.137516</dc:date>
    <dc:format>image/svg+xml</dc:format>
    <dc:creator>
     <cc:Agent>
      <dc:title>Matplotlib v3.3.1, https://matplotlib.org/</dc:title>
     </cc:Agent>
    </dc:creator>
   </cc:Work>
  </rdf:RDF>
 </metadata>
 <defs>
  <style type="text/css">*{stroke-linecap:butt;stroke-linejoin:round;}</style>
 </defs>
 <g id="figure_1">
  <g id="patch_1">
   <path d="M 0 410.138359 
L 725.593437 410.138359 
L 725.593437 -0 
L 0 -0 
z
" style="fill:#ffffff;"/>
  </g>
  <g id="axes_1">
   <g id="patch_2">
    <path d="M 48.793438 282.936797 
L 718.393438 282.936797 
L 718.393438 11.136797 
L 48.793438 11.136797 
z
" style="fill:#eaeaf2;"/>
   </g>
   <g id="matplotlib.axis_1">
    <g id="xtick_1">
     <g id="line2d_1">
      <path clip-path="url(#pf265fcf667)" d="M 83.673066 282.936797 
L 83.673066 11.136797 
" style="fill:none;stroke:#ffffff;stroke-linecap:round;"/>
     </g>
     <g id="text_1">
      <!-- networkswitch -->
      <g style="fill:#262626;" transform="translate(87.292285 380.350234)rotate(-90)scale(0.14 -0.14)">
       <defs>
        <path d="M 6.59375 0 
L 6.59375 51.859375 
L 14.5 51.859375 
L 14.5 44.484375 
Q 20.21875 53.03125 31 53.03125 
Q 35.6875 53.03125 39.625 51.34375 
Q 43.5625 49.65625 45.515625 46.921875 
Q 47.46875 44.1875 48.25 40.4375 
Q 48.734375 37.984375 48.734375 31.890625 
L 48.734375 0 
L 39.9375 0 
L 39.9375 31.546875 
Q 39.9375 36.921875 38.90625 39.578125 
Q 37.890625 42.234375 35.28125 43.8125 
Q 32.671875 45.40625 29.15625 45.40625 
Q 23.53125 45.40625 19.453125 41.84375 
Q 15.375 38.28125 15.375 28.328125 
L 15.375 0 
z
" id="ArialMT-110"/>
        <path d="M 42.09375 16.703125 
L 51.171875 15.578125 
Q 49.03125 7.625 43.21875 3.21875 
Q 37.40625 -1.171875 28.375 -1.171875 
Q 17 -1.171875 10.328125 5.828125 
Q 3.65625 12.84375 3.65625 25.484375 
Q 3.65625 38.578125 10.390625 45.796875 
Q 17.140625 53.03125 27.875 53.03125 
Q 38.28125 53.03125 44.875 45.953125 
Q 51.46875 38.875 51.46875 26.03125 
Q 51.46875 25.25 51.421875 23.6875 
L 12.75 23.6875 
Q 13.234375 15.140625 17.578125 10.59375 
Q 21.921875 6.0625 28.421875 6.0625 
Q 33.25 6.0625 36.671875 8.59375 
Q 40.09375 11.140625 42.09375 16.703125 
z
M 13.234375 30.90625 
L 42.1875 30.90625 
Q 41.609375 37.453125 38.875 40.71875 
Q 34.671875 45.796875 27.984375 45.796875 
Q 21.921875 45.796875 17.796875 41.75 
Q 13.671875 37.703125 13.234375 30.90625 
z
" id="ArialMT-101"/>
        <path d="M 25.78125 7.859375 
L 27.046875 0.09375 
Q 23.34375 -0.6875 20.40625 -0.6875 
Q 15.625 -0.6875 12.984375 0.828125 
Q 10.359375 2.34375 9.28125 4.8125 
Q 8.203125 7.28125 8.203125 15.1875 
L 8.203125 45.015625 
L 1.765625 45.015625 
L 1.765625 51.859375 
L 8.203125 51.859375 
L 8.203125 64.703125 
L 16.9375 69.96875 
L 16.9375 51.859375 
L 25.78125 51.859375 
L 25.78125 45.015625 
L 16.9375 45.015625 
L 16.9375 14.703125 
Q 16.9375 10.9375 17.40625 9.859375 
Q 17.875 8.796875 18.921875 8.15625 
Q 19.96875 7.515625 21.921875 7.515625 
Q 23.390625 7.515625 25.78125 7.859375 
z
" id="ArialMT-116"/>
        <path d="M 16.15625 0 
L 0.296875 51.859375 
L 9.375 51.859375 
L 17.625 21.921875 
L 20.703125 10.796875 
Q 20.90625 11.625 23.390625 21.484375 
L 31.640625 51.859375 
L 40.671875 51.859375 
L 48.4375 21.78125 
L 51.03125 11.859375 
L 54 21.875 
L 62.890625 51.859375 
L 71.4375 51.859375 
L 55.21875 0 
L 46.09375 0 
L 37.84375 31.0625 
L 35.84375 39.890625 
L 25.34375 0 
z
" id="ArialMT-119"/>
        <path d="M 3.328125 25.921875 
Q 3.328125 40.328125 11.328125 47.265625 
Q 18.015625 53.03125 27.640625 53.03125 
Q 38.328125 53.03125 45.109375 46.015625 
Q 51.90625 39.015625 51.90625 26.65625 
Q 51.90625 16.65625 48.90625 10.90625 
Q 45.90625 5.171875 40.15625 2 
Q 34.421875 -1.171875 27.640625 -1.171875 
Q 16.75 -1.171875 10.03125 5.8125 
Q 3.328125 12.796875 3.328125 25.921875 
z
M 12.359375 25.921875 
Q 12.359375 15.96875 16.703125 11.015625 
Q 21.046875 6.0625 27.640625 6.0625 
Q 34.1875 6.0625 38.53125 11.03125 
Q 42.875 16.015625 42.875 26.21875 
Q 42.875 35.84375 38.5 40.796875 
Q 34.125 45.75 27.640625 45.75 
Q 21.046875 45.75 16.703125 40.8125 
Q 12.359375 35.890625 12.359375 25.921875 
z
" id="ArialMT-111"/>
        <path d="M 6.5 0 
L 6.5 51.859375 
L 14.40625 51.859375 
L 14.40625 44 
Q 17.4375 49.515625 20 51.265625 
Q 22.5625 53.03125 25.640625 53.03125 
Q 30.078125 53.03125 34.671875 50.203125 
L 31.640625 42.046875 
Q 28.421875 43.953125 25.203125 43.953125 
Q 22.3125 43.953125 20.015625 42.21875 
Q 17.71875 40.484375 16.75 37.40625 
Q 15.28125 32.71875 15.28125 27.15625 
L 15.28125 0 
z
" id="ArialMT-114"/>
        <path d="M 6.640625 0 
L 6.640625 71.578125 
L 15.4375 71.578125 
L 15.4375 30.765625 
L 36.234375 51.859375 
L 47.609375 51.859375 
L 27.78125 32.625 
L 49.609375 0 
L 38.765625 0 
L 21.625 26.515625 
L 15.4375 20.5625 
L 15.4375 0 
z
" id="ArialMT-107"/>
        <path d="M 3.078125 15.484375 
L 11.765625 16.84375 
Q 12.5 11.625 15.84375 8.84375 
Q 19.1875 6.0625 25.203125 6.0625 
Q 31.25 6.0625 34.171875 8.515625 
Q 37.109375 10.984375 37.109375 14.3125 
Q 37.109375 17.28125 34.515625 19 
Q 32.71875 20.171875 25.53125 21.96875 
Q 15.875 24.421875 12.140625 26.203125 
Q 8.40625 27.984375 6.46875 31.125 
Q 4.546875 34.28125 4.546875 38.09375 
Q 4.546875 41.546875 6.125 44.5 
Q 7.71875 47.46875 10.453125 49.421875 
Q 12.5 50.921875 16.03125 51.96875 
Q 19.578125 53.03125 23.640625 53.03125 
Q 29.734375 53.03125 34.34375 51.265625 
Q 38.96875 49.515625 41.15625 46.5 
Q 43.359375 43.5 44.1875 38.484375 
L 35.59375 37.3125 
Q 35.015625 41.3125 32.203125 43.546875 
Q 29.390625 45.796875 24.265625 45.796875 
Q 18.21875 45.796875 15.625 43.796875 
Q 13.03125 41.796875 13.03125 39.109375 
Q 13.03125 37.40625 14.109375 36.03125 
Q 15.1875 34.625 17.484375 33.6875 
Q 18.796875 33.203125 25.25 31.453125 
Q 34.578125 28.953125 38.25 27.359375 
Q 41.9375 25.78125 44.03125 22.75 
Q 46.140625 19.734375 46.140625 15.234375 
Q 46.140625 10.84375 43.578125 6.953125 
Q 41.015625 3.078125 36.171875 0.953125 
Q 31.34375 -1.171875 25.25 -1.171875 
Q 15.140625 -1.171875 9.84375 3.03125 
Q 4.546875 7.234375 3.078125 15.484375 
z
" id="ArialMT-115"/>
        <path d="M 6.640625 61.46875 
L 6.640625 71.578125 
L 15.4375 71.578125 
L 15.4375 61.46875 
z
M 6.640625 0 
L 6.640625 51.859375 
L 15.4375 51.859375 
L 15.4375 0 
z
" id="ArialMT-105"/>
        <path d="M 40.4375 19 
L 49.078125 17.875 
Q 47.65625 8.9375 41.8125 3.875 
Q 35.984375 -1.171875 27.484375 -1.171875 
Q 16.84375 -1.171875 10.375 5.78125 
Q 3.90625 12.75 3.90625 25.734375 
Q 3.90625 34.125 6.6875 40.421875 
Q 9.46875 46.734375 15.15625 49.875 
Q 20.84375 53.03125 27.546875 53.03125 
Q 35.984375 53.03125 41.359375 48.75 
Q 46.734375 44.484375 48.25 36.625 
L 39.703125 35.296875 
Q 38.484375 40.53125 35.375 43.15625 
Q 32.28125 45.796875 27.875 45.796875 
Q 21.234375 45.796875 17.078125 41.03125 
Q 12.9375 36.28125 12.9375 25.984375 
Q 12.9375 15.53125 16.9375 10.796875 
Q 20.953125 6.0625 27.390625 6.0625 
Q 32.5625 6.0625 36.03125 9.234375 
Q 39.5 12.40625 40.4375 19 
z
" id="ArialMT-99"/>
        <path d="M 6.59375 0 
L 6.59375 71.578125 
L 15.375 71.578125 
L 15.375 45.90625 
Q 21.53125 53.03125 30.90625 53.03125 
Q 36.671875 53.03125 40.921875 50.75 
Q 45.171875 48.484375 47 44.484375 
Q 48.828125 40.484375 48.828125 32.859375 
L 48.828125 0 
L 40.046875 0 
L 40.046875 32.859375 
Q 40.046875 39.453125 37.1875 42.453125 
Q 34.328125 45.453125 29.109375 45.453125 
Q 25.203125 45.453125 21.75 43.421875 
Q 18.3125 41.40625 16.84375 37.9375 
Q 15.375 34.46875 15.375 28.375 
L 15.375 0 
z
" id="ArialMT-104"/>
       </defs>
       <use xlink:href="#ArialMT-110"/>
       <use x="55.615234" xlink:href="#ArialMT-101"/>
       <use x="111.230469" xlink:href="#ArialMT-116"/>
       <use x="139.013672" xlink:href="#ArialMT-119"/>
       <use x="211.230469" xlink:href="#ArialMT-111"/>
       <use x="266.845703" xlink:href="#ArialMT-114"/>
       <use x="300.146484" xlink:href="#ArialMT-107"/>
       <use x="350.146484" xlink:href="#ArialMT-115"/>
       <use x="400.146484" xlink:href="#ArialMT-119"/>
       <use x="472.363281" xlink:href="#ArialMT-105"/>
       <use x="494.580078" xlink:href="#ArialMT-116"/>
       <use x="522.363281" xlink:href="#ArialMT-99"/>
       <use x="572.363281" xlink:href="#ArialMT-104"/>
      </g>
     </g>
    </g>
    <g id="xtick_2">
     <g id="line2d_2">
      <path clip-path="url(#pf265fcf667)" d="M 94.781228 282.936797 
L 94.781228 11.136797 
" style="fill:none;stroke:#ffffff;stroke-linecap:round;"/>
     </g>
     <g id="text_2">
      <!-- mosquitorepellent -->
      <g style="fill:#262626;" transform="translate(98.400447 402.938359)rotate(-90)scale(0.14 -0.14)">
       <defs>
        <path d="M 6.59375 0 
L 6.59375 51.859375 
L 14.453125 51.859375 
L 14.453125 44.578125 
Q 16.890625 48.390625 20.9375 50.703125 
Q 25 53.03125 30.171875 53.03125 
Q 35.9375 53.03125 39.625 50.640625 
Q 43.3125 48.25 44.828125 43.953125 
Q 50.984375 53.03125 60.84375 53.03125 
Q 68.5625 53.03125 72.703125 48.75 
Q 76.859375 44.484375 76.859375 35.59375 
L 76.859375 0 
L 68.109375 0 
L 68.109375 32.671875 
Q 68.109375 37.9375 67.25 40.25 
Q 66.40625 42.578125 64.15625 43.984375 
Q 61.921875 45.40625 58.890625 45.40625 
Q 53.421875 45.40625 49.796875 41.765625 
Q 46.1875 38.140625 46.1875 30.125 
L 46.1875 0 
L 37.40625 0 
L 37.40625 33.6875 
Q 37.40625 39.546875 35.25 42.46875 
Q 33.109375 45.40625 28.21875 45.40625 
Q 24.515625 45.40625 21.359375 43.453125 
Q 18.21875 41.5 16.796875 37.734375 
Q 15.375 33.984375 15.375 26.90625 
L 15.375 0 
z
" id="ArialMT-109"/>
        <path d="M 39.65625 -19.875 
L 39.65625 5.515625 
Q 37.59375 2.640625 33.90625 0.734375 
Q 30.21875 -1.171875 26.078125 -1.171875 
Q 16.84375 -1.171875 10.171875 6.203125 
Q 3.515625 13.578125 3.515625 26.421875 
Q 3.515625 34.234375 6.21875 40.421875 
Q 8.9375 46.625 14.078125 49.828125 
Q 19.234375 53.03125 25.390625 53.03125 
Q 35.015625 53.03125 40.53125 44.921875 
L 40.53125 51.859375 
L 48.4375 51.859375 
L 48.4375 -19.875 
z
M 12.546875 26.078125 
Q 12.546875 16.0625 16.75 11.0625 
Q 20.953125 6.0625 26.8125 6.0625 
Q 32.421875 6.0625 36.46875 10.8125 
Q 40.53125 15.578125 40.53125 25.296875 
Q 40.53125 35.640625 36.25 40.859375 
Q 31.984375 46.09375 26.21875 46.09375 
Q 20.515625 46.09375 16.53125 41.234375 
Q 12.546875 36.375 12.546875 26.078125 
z
" id="ArialMT-113"/>
        <path d="M 40.578125 0 
L 40.578125 7.625 
Q 34.515625 -1.171875 24.125 -1.171875 
Q 19.53125 -1.171875 15.546875 0.578125 
Q 11.578125 2.34375 9.640625 5 
Q 7.71875 7.671875 6.9375 11.53125 
Q 6.390625 14.109375 6.390625 19.734375 
L 6.390625 51.859375 
L 15.1875 51.859375 
L 15.1875 23.09375 
Q 15.1875 16.21875 15.71875 13.8125 
Q 16.546875 10.359375 19.234375 8.375 
Q 21.921875 6.390625 25.875 6.390625 
Q 29.828125 6.390625 33.296875 8.421875 
Q 36.765625 10.453125 38.203125 13.9375 
Q 39.65625 17.4375 39.65625 24.078125 
L 39.65625 51.859375 
L 48.4375 51.859375 
L 48.4375 0 
z
" id="ArialMT-117"/>
        <path d="M 6.59375 -19.875 
L 6.59375 51.859375 
L 14.59375 51.859375 
L 14.59375 45.125 
Q 17.4375 49.078125 21 51.046875 
Q 24.5625 53.03125 29.640625 53.03125 
Q 36.28125 53.03125 41.359375 49.609375 
Q 46.4375 46.1875 49.015625 39.953125 
Q 51.609375 33.734375 51.609375 26.3125 
Q 51.609375 18.359375 48.75 11.984375 
Q 45.90625 5.609375 40.453125 2.21875 
Q 35.015625 -1.171875 29 -1.171875 
Q 24.609375 -1.171875 21.109375 0.6875 
Q 17.625 2.546875 15.375 5.375 
L 15.375 -19.875 
z
M 14.546875 25.640625 
Q 14.546875 15.625 18.59375 10.84375 
Q 22.65625 6.0625 28.421875 6.0625 
Q 34.28125 6.0625 38.453125 11.015625 
Q 42.625 15.96875 42.625 26.375 
Q 42.625 36.28125 38.546875 41.203125 
Q 34.46875 46.140625 28.8125 46.140625 
Q 23.1875 46.140625 18.859375 40.890625 
Q 14.546875 35.640625 14.546875 25.640625 
z
" id="ArialMT-112"/>
        <path d="M 6.390625 0 
L 6.390625 71.578125 
L 15.1875 71.578125 
L 15.1875 0 
z
" id="ArialMT-108"/>
       </defs>
       <use xlink:href="#ArialMT-109"/>
       <use x="83.300781" xlink:href="#ArialMT-111"/>
       <use x="138.916016" xlink:href="#ArialMT-115"/>
       <use x="188.916016" xlink:href="#ArialMT-113"/>
       <use x="244.53125" xlink:href="#ArialMT-117"/>
       <use x="300.146484" xlink:href="#ArialMT-105"/>
       <use x="322.363281" xlink:href="#ArialMT-116"/>
       <use x="350.146484" xlink:href="#ArialMT-111"/>
       <use x="405.761719" xlink:href="#ArialMT-114"/>
       <use x="439.0625" xlink:href="#ArialMT-101"/>
       <use x="494.677734" xlink:href="#ArialMT-112"/>
       <use x="550.292969" xlink:href="#ArialMT-101"/>
       <use x="605.908203" xlink:href="#ArialMT-108"/>
       <use x="628.125" xlink:href="#ArialMT-108"/>
       <use x="650.341797" xlink:href="#ArialMT-101"/>
       <use x="705.957031" xlink:href="#ArialMT-110"/>
       <use x="761.572266" xlink:href="#ArialMT-116"/>
      </g>
     </g>
    </g>
    <g id="xtick_3">
     <g id="line2d_3">
      <path clip-path="url(#pf265fcf667)" d="M 105.88939 282.936797 
L 105.88939 11.136797 
" style="fill:none;stroke:#ffffff;stroke-linecap:round;"/>
     </g>
     <g id="text_3">
      <!-- shoewarmer -->
      <g style="fill:#262626;" transform="translate(109.508608 369.458672)rotate(-90)scale(0.14 -0.14)">
       <defs>
        <path d="M 40.4375 6.390625 
Q 35.546875 2.25 31.03125 0.53125 
Q 26.515625 -1.171875 21.34375 -1.171875 
Q 12.796875 -1.171875 8.203125 3 
Q 3.609375 7.171875 3.609375 13.671875 
Q 3.609375 17.484375 5.34375 20.625 
Q 7.078125 23.78125 9.890625 25.6875 
Q 12.703125 27.59375 16.21875 28.5625 
Q 18.796875 29.25 24.03125 29.890625 
Q 34.671875 31.15625 39.703125 32.90625 
Q 39.75 34.71875 39.75 35.203125 
Q 39.75 40.578125 37.25 42.78125 
Q 33.890625 45.75 27.25 45.75 
Q 21.046875 45.75 18.09375 43.578125 
Q 15.140625 41.40625 13.71875 35.890625 
L 5.125 37.0625 
Q 6.296875 42.578125 8.984375 45.96875 
Q 11.671875 49.359375 16.75 51.1875 
Q 21.828125 53.03125 28.515625 53.03125 
Q 35.15625 53.03125 39.296875 51.46875 
Q 43.453125 49.90625 45.40625 47.53125 
Q 47.359375 45.171875 48.140625 41.546875 
Q 48.578125 39.3125 48.578125 33.453125 
L 48.578125 21.734375 
Q 48.578125 9.46875 49.140625 6.21875 
Q 49.703125 2.984375 51.375 0 
L 42.1875 0 
Q 40.828125 2.734375 40.4375 6.390625 
z
M 39.703125 26.03125 
Q 34.90625 24.078125 25.34375 22.703125 
Q 19.921875 21.921875 17.671875 20.9375 
Q 15.4375 19.96875 14.203125 18.09375 
Q 12.984375 16.21875 12.984375 13.921875 
Q 12.984375 10.40625 15.640625 8.0625 
Q 18.3125 5.71875 23.4375 5.71875 
Q 28.515625 5.71875 32.46875 7.9375 
Q 36.421875 10.15625 38.28125 14.015625 
Q 39.703125 17 39.703125 22.796875 
z
" id="ArialMT-97"/>
       </defs>
       <use xlink:href="#ArialMT-115"/>
       <use x="50" xlink:href="#ArialMT-104"/>
       <use x="105.615234" xlink:href="#ArialMT-111"/>
       <use x="161.230469" xlink:href="#ArialMT-101"/>
       <use x="216.845703" xlink:href="#ArialMT-119"/>
       <use x="289.0625" xlink:href="#ArialMT-97"/>
       <use x="344.677734" xlink:href="#ArialMT-114"/>
       <use x="377.978516" xlink:href="#ArialMT-109"/>
       <use x="461.279297" xlink:href="#ArialMT-101"/>
       <use x="516.894531" xlink:href="#ArialMT-114"/>
      </g>
     </g>
    </g>
    <g id="xtick_4">
     <g id="line2d_4">
      <path clip-path="url(#pf265fcf667)" d="M 116.997552 282.936797 
L 116.997552 11.136797 
" style="fill:none;stroke:#ffffff;stroke-linecap:round;"/>
     </g>
     <g id="text_4">
      <!-- fan -->
      <g style="fill:#262626;" transform="translate(120.61677 311.896797)rotate(-90)scale(0.14 -0.14)">
       <defs>
        <path d="M 8.6875 0 
L 8.6875 45.015625 
L 0.921875 45.015625 
L 0.921875 51.859375 
L 8.6875 51.859375 
L 8.6875 57.375 
Q 8.6875 62.59375 9.625 65.140625 
Q 10.890625 68.5625 14.078125 70.671875 
Q 17.28125 72.796875 23.046875 72.796875 
Q 26.765625 72.796875 31.25 71.921875 
L 29.9375 64.265625 
Q 27.203125 64.75 24.75 64.75 
Q 20.75 64.75 19.09375 63.03125 
Q 17.4375 61.328125 17.4375 56.640625 
L 17.4375 51.859375 
L 27.546875 51.859375 
L 27.546875 45.015625 
L 17.4375 45.015625 
L 17.4375 0 
z
" id="ArialMT-102"/>
       </defs>
       <use xlink:href="#ArialMT-102"/>
       <use x="27.783203" xlink:href="#ArialMT-97"/>
       <use x="83.398438" xlink:href="#ArialMT-110"/>
      </g>
     </g>
    </g>
    <g id="xtick_5">
     <g id="line2d_5">
      <path clip-path="url(#pf265fcf667)" d="M 128.105714 282.936797 
L 128.105714 11.136797 
" style="fill:none;stroke:#ffffff;stroke-linecap:round;"/>
     </g>
     <g id="text_5">
      <!-- halogen -->
      <g style="fill:#262626;" transform="translate(131.642901 342.259297)rotate(-90)scale(0.14 -0.14)">
       <defs>
        <path d="M 4.984375 -4.296875 
L 13.53125 -5.5625 
Q 14.0625 -9.515625 16.5 -11.328125 
Q 19.78125 -13.765625 25.4375 -13.765625 
Q 31.546875 -13.765625 34.859375 -11.328125 
Q 38.1875 -8.890625 39.359375 -4.5 
Q 40.046875 -1.8125 39.984375 6.78125 
Q 34.234375 0 25.640625 0 
Q 14.9375 0 9.078125 7.71875 
Q 3.21875 15.4375 3.21875 26.21875 
Q 3.21875 33.640625 5.90625 39.90625 
Q 8.59375 46.1875 13.6875 49.609375 
Q 18.796875 53.03125 25.6875 53.03125 
Q 34.859375 53.03125 40.828125 45.609375 
L 40.828125 51.859375 
L 48.921875 51.859375 
L 48.921875 7.03125 
Q 48.921875 -5.078125 46.453125 -10.125 
Q 44 -15.1875 38.640625 -18.109375 
Q 33.296875 -21.046875 25.484375 -21.046875 
Q 16.21875 -21.046875 10.5 -16.875 
Q 4.78125 -12.703125 4.984375 -4.296875 
z
M 12.25 26.859375 
Q 12.25 16.65625 16.296875 11.96875 
Q 20.359375 7.28125 26.46875 7.28125 
Q 32.515625 7.28125 36.609375 11.9375 
Q 40.71875 16.609375 40.71875 26.5625 
Q 40.71875 36.078125 36.5 40.90625 
Q 32.28125 45.75 26.3125 45.75 
Q 20.453125 45.75 16.34375 40.984375 
Q 12.25 36.234375 12.25 26.859375 
z
" id="ArialMT-103"/>
       </defs>
       <use xlink:href="#ArialMT-104"/>
       <use x="55.615234" xlink:href="#ArialMT-97"/>
       <use x="111.230469" xlink:href="#ArialMT-108"/>
       <use x="133.447266" xlink:href="#ArialMT-111"/>
       <use x="189.0625" xlink:href="#ArialMT-103"/>
       <use x="244.677734" xlink:href="#ArialMT-101"/>
       <use x="300.292969" xlink:href="#ArialMT-110"/>
      </g>
     </g>
    </g>
    <g id="xtick_6">
     <g id="line2d_6">
      <path clip-path="url(#pf265fcf667)" d="M 139.213875 282.936797 
L 139.213875 11.136797 
" style="fill:none;stroke:#ffffff;stroke-linecap:round;"/>
     </g>
     <g id="text_6">
      <!-- ac -->
      <g style="fill:#262626;" transform="translate(142.833094 307.222109)rotate(-90)scale(0.14 -0.14)">
       <use xlink:href="#ArialMT-97"/>
       <use x="55.615234" xlink:href="#ArialMT-99"/>
      </g>
     </g>
    </g>
    <g id="xtick_7">
     <g id="line2d_7">
      <path clip-path="url(#pf265fcf667)" d="M 150.322037 282.936797 
L 150.322037 11.136797 
" style="fill:none;stroke:#ffffff;stroke-linecap:round;"/>
     </g>
     <g id="text_7">
      <!-- cablemodem -->
      <g style="fill:#262626;" transform="translate(153.941256 372.582422)rotate(-90)scale(0.14 -0.14)">
       <defs>
        <path d="M 14.703125 0 
L 6.546875 0 
L 6.546875 71.578125 
L 15.328125 71.578125 
L 15.328125 46.046875 
Q 20.90625 53.03125 29.546875 53.03125 
Q 34.328125 53.03125 38.59375 51.09375 
Q 42.875 49.171875 45.625 45.671875 
Q 48.390625 42.1875 49.953125 37.25 
Q 51.515625 32.328125 51.515625 26.703125 
Q 51.515625 13.375 44.921875 6.09375 
Q 38.328125 -1.171875 29.109375 -1.171875 
Q 19.921875 -1.171875 14.703125 6.5 
z
M 14.59375 26.3125 
Q 14.59375 17 17.140625 12.84375 
Q 21.296875 6.0625 28.375 6.0625 
Q 34.125 6.0625 38.328125 11.0625 
Q 42.53125 16.0625 42.53125 25.984375 
Q 42.53125 36.140625 38.5 40.96875 
Q 34.46875 45.796875 28.765625 45.796875 
Q 23 45.796875 18.796875 40.796875 
Q 14.59375 35.796875 14.59375 26.3125 
z
" id="ArialMT-98"/>
        <path d="M 40.234375 0 
L 40.234375 6.546875 
Q 35.296875 -1.171875 25.734375 -1.171875 
Q 19.53125 -1.171875 14.328125 2.25 
Q 9.125 5.671875 6.265625 11.796875 
Q 3.421875 17.921875 3.421875 25.875 
Q 3.421875 33.640625 6 39.96875 
Q 8.59375 46.296875 13.765625 49.65625 
Q 18.953125 53.03125 25.34375 53.03125 
Q 30.03125 53.03125 33.6875 51.046875 
Q 37.359375 49.078125 39.65625 45.90625 
L 39.65625 71.578125 
L 48.390625 71.578125 
L 48.390625 0 
z
M 12.453125 25.875 
Q 12.453125 15.921875 16.640625 10.984375 
Q 20.84375 6.0625 26.5625 6.0625 
Q 32.328125 6.0625 36.34375 10.765625 
Q 40.375 15.484375 40.375 25.140625 
Q 40.375 35.796875 36.265625 40.765625 
Q 32.171875 45.75 26.171875 45.75 
Q 20.3125 45.75 16.375 40.96875 
Q 12.453125 36.1875 12.453125 25.875 
z
" id="ArialMT-100"/>
       </defs>
       <use xlink:href="#ArialMT-99"/>
       <use x="50" xlink:href="#ArialMT-97"/>
       <use x="105.615234" xlink:href="#ArialMT-98"/>
       <use x="161.230469" xlink:href="#ArialMT-108"/>
       <use x="183.447266" xlink:href="#ArialMT-101"/>
       <use x="239.0625" xlink:href="#ArialMT-109"/>
       <use x="322.363281" xlink:href="#ArialMT-111"/>
       <use x="377.978516" xlink:href="#ArialMT-100"/>
       <use x="433.59375" xlink:href="#ArialMT-101"/>
       <use x="489.208984" xlink:href="#ArialMT-109"/>
      </g>
     </g>
    </g>
    <g id="xtick_8">
     <g id="line2d_8">
      <path clip-path="url(#pf265fcf667)" d="M 161.430199 282.936797 
L 161.430199 11.136797 
" style="fill:none;stroke:#ffffff;stroke-linecap:round;"/>
     </g>
     <g id="text_8">
      <!-- fridge -->
      <g style="fill:#262626;" transform="translate(165.052699 327.454297)rotate(-90)scale(0.14 -0.14)">
       <use xlink:href="#ArialMT-102"/>
       <use x="27.783203" xlink:href="#ArialMT-114"/>
       <use x="61.083984" xlink:href="#ArialMT-105"/>
       <use x="83.300781" xlink:href="#ArialMT-100"/>
       <use x="138.916016" xlink:href="#ArialMT-103"/>
       <use x="194.53125" xlink:href="#ArialMT-101"/>
      </g>
     </g>
    </g>
    <g id="xtick_9">
     <g id="line2d_9">
      <path clip-path="url(#pf265fcf667)" d="M 172.538361 282.936797 
L 172.538361 11.136797 
" style="fill:none;stroke:#ffffff;stroke-linecap:round;"/>
     </g>
     <g id="text_9">
      <!-- guitaramp -->
      <g style="fill:#262626;" transform="translate(176.075549 354.686484)rotate(-90)scale(0.14 -0.14)">
       <use xlink:href="#ArialMT-103"/>
       <use x="55.615234" xlink:href="#ArialMT-117"/>
       <use x="111.230469" xlink:href="#ArialMT-105"/>
       <use x="133.447266" xlink:href="#ArialMT-116"/>
       <use x="161.230469" xlink:href="#ArialMT-97"/>
       <use x="216.845703" xlink:href="#ArialMT-114"/>
       <use x="250.146484" xlink:href="#ArialMT-97"/>
       <use x="305.761719" xlink:href="#ArialMT-109"/>
       <use x="389.0625" xlink:href="#ArialMT-112"/>
      </g>
     </g>
    </g>
    <g id="xtick_10">
     <g id="line2d_10">
      <path clip-path="url(#pf265fcf667)" d="M 183.646523 282.936797 
L 183.646523 11.136797 
" style="fill:none;stroke:#ffffff;stroke-linecap:round;"/>
     </g>
     <g id="text_10">
      <!-- cablereceiver -->
      <g style="fill:#262626;" transform="translate(187.265742 375.693047)rotate(-90)scale(0.14 -0.14)">
       <defs>
        <path d="M 21 0 
L 1.265625 51.859375 
L 10.546875 51.859375 
L 21.6875 20.796875 
Q 23.484375 15.765625 25 10.359375 
Q 26.171875 14.453125 28.265625 20.21875 
L 39.796875 51.859375 
L 48.828125 51.859375 
L 29.203125 0 
z
" id="ArialMT-118"/>
       </defs>
       <use xlink:href="#ArialMT-99"/>
       <use x="50" xlink:href="#ArialMT-97"/>
       <use x="105.615234" xlink:href="#ArialMT-98"/>
       <use x="161.230469" xlink:href="#ArialMT-108"/>
       <use x="183.447266" xlink:href="#ArialMT-101"/>
       <use x="239.0625" xlink:href="#ArialMT-114"/>
       <use x="272.363281" xlink:href="#ArialMT-101"/>
       <use x="327.978516" xlink:href="#ArialMT-99"/>
       <use x="377.978516" xlink:href="#ArialMT-101"/>
       <use x="433.59375" xlink:href="#ArialMT-105"/>
       <use x="455.810547" xlink:href="#ArialMT-118"/>
       <use x="505.810547" xlink:href="#ArialMT-101"/>
       <use x="561.425781" xlink:href="#ArialMT-114"/>
      </g>
     </g>
    </g>
    <g id="xtick_11">
     <g id="line2d_11">
      <path clip-path="url(#pf265fcf667)" d="M 194.754685 282.936797 
L 194.754685 11.136797 
" style="fill:none;stroke:#ffffff;stroke-linecap:round;"/>
     </g>
     <g id="text_11">
      <!-- powersupply -->
      <g style="fill:#262626;" transform="translate(198.291873 371.031484)rotate(-90)scale(0.14 -0.14)">
       <defs>
        <path d="M 6.203125 -19.96875 
L 5.21875 -11.71875 
Q 8.109375 -12.5 10.25 -12.5 
Q 13.1875 -12.5 14.9375 -11.515625 
Q 16.703125 -10.546875 17.828125 -8.796875 
Q 18.65625 -7.46875 20.515625 -2.25 
Q 20.75 -1.515625 21.296875 -0.09375 
L 1.609375 51.859375 
L 11.078125 51.859375 
L 21.875 21.828125 
Q 23.96875 16.109375 25.640625 9.8125 
Q 27.15625 15.875 29.25 21.625 
L 40.328125 51.859375 
L 49.125 51.859375 
L 29.390625 -0.875 
Q 26.21875 -9.421875 24.46875 -12.640625 
Q 22.125 -17 19.09375 -19.015625 
Q 16.0625 -21.046875 11.859375 -21.046875 
Q 9.328125 -21.046875 6.203125 -19.96875 
z
" id="ArialMT-121"/>
       </defs>
       <use xlink:href="#ArialMT-112"/>
       <use x="55.615234" xlink:href="#ArialMT-111"/>
       <use x="111.230469" xlink:href="#ArialMT-119"/>
       <use x="183.447266" xlink:href="#ArialMT-101"/>
       <use x="239.0625" xlink:href="#ArialMT-114"/>
       <use x="272.363281" xlink:href="#ArialMT-115"/>
       <use x="322.363281" xlink:href="#ArialMT-117"/>
       <use x="377.978516" xlink:href="#ArialMT-112"/>
       <use x="433.59375" xlink:href="#ArialMT-112"/>
       <use x="489.208984" xlink:href="#ArialMT-108"/>
       <use x="511.425781" xlink:href="#ArialMT-121"/>
      </g>
     </g>
    </g>
    <g id="xtick_12">
     <g id="line2d_12">
      <path clip-path="url(#pf265fcf667)" d="M 205.862847 282.936797 
L 205.862847 11.136797 
" style="fill:none;stroke:#ffffff;stroke-linecap:round;"/>
     </g>
     <g id="text_12">
      <!-- lightbulb -->
      <g style="fill:#262626;" transform="translate(209.400034 344.584609)rotate(-90)scale(0.14 -0.14)">
       <use xlink:href="#ArialMT-108"/>
       <use x="22.216797" xlink:href="#ArialMT-105"/>
       <use x="44.433594" xlink:href="#ArialMT-103"/>
       <use x="100.048828" xlink:href="#ArialMT-104"/>
       <use x="155.664062" xlink:href="#ArialMT-116"/>
       <use x="183.447266" xlink:href="#ArialMT-98"/>
       <use x="239.0625" xlink:href="#ArialMT-117"/>
       <use x="294.677734" xlink:href="#ArialMT-108"/>
       <use x="316.894531" xlink:href="#ArialMT-98"/>
      </g>
     </g>
    </g>
    <g id="xtick_13">
     <g id="line2d_13">
      <path clip-path="url(#pf265fcf667)" d="M 216.971009 282.936797 
L 216.971009 11.136797 
" style="fill:none;stroke:#ffffff;stroke-linecap:round;"/>
     </g>
     <g id="text_13">
      <!-- ricecooker -->
      <g style="fill:#262626;" transform="translate(220.590228 357.011797)rotate(-90)scale(0.14 -0.14)">
       <use xlink:href="#ArialMT-114"/>
       <use x="33.300781" xlink:href="#ArialMT-105"/>
       <use x="55.517578" xlink:href="#ArialMT-99"/>
       <use x="105.517578" xlink:href="#ArialMT-101"/>
       <use x="161.132812" xlink:href="#ArialMT-99"/>
       <use x="211.132812" xlink:href="#ArialMT-111"/>
       <use x="266.748047" xlink:href="#ArialMT-111"/>
       <use x="322.363281" xlink:href="#ArialMT-107"/>
       <use x="372.363281" xlink:href="#ArialMT-101"/>
       <use x="427.978516" xlink:href="#ArialMT-114"/>
      </g>
     </g>
    </g>
    <g id="xtick_14">
     <g id="line2d_14">
      <path clip-path="url(#pf265fcf667)" d="M 228.079171 282.936797 
L 228.079171 11.136797 
" style="fill:none;stroke:#ffffff;stroke-linecap:round;"/>
     </g>
     <g id="text_14">
      <!-- charger -->
      <g style="fill:#262626;" transform="translate(231.616358 339.901172)rotate(-90)scale(0.14 -0.14)">
       <use xlink:href="#ArialMT-99"/>
       <use x="50" xlink:href="#ArialMT-104"/>
       <use x="105.615234" xlink:href="#ArialMT-97"/>
       <use x="161.230469" xlink:href="#ArialMT-114"/>
       <use x="194.53125" xlink:href="#ArialMT-103"/>
       <use x="250.146484" xlink:href="#ArialMT-101"/>
       <use x="305.761719" xlink:href="#ArialMT-114"/>
      </g>
     </g>
    </g>
    <g id="xtick_15">
     <g id="line2d_15">
      <path clip-path="url(#pf265fcf667)" d="M 239.187333 282.936797 
L 239.187333 11.136797 
" style="fill:none;stroke:#ffffff;stroke-linecap:round;"/>
     </g>
     <g id="text_15">
      <!-- kitchenhood -->
      <g style="fill:#262626;" transform="translate(242.806551 367.933984)rotate(-90)scale(0.14 -0.14)">
       <use xlink:href="#ArialMT-107"/>
       <use x="50" xlink:href="#ArialMT-105"/>
       <use x="72.216797" xlink:href="#ArialMT-116"/>
       <use x="100" xlink:href="#ArialMT-99"/>
       <use x="150" xlink:href="#ArialMT-104"/>
       <use x="205.615234" xlink:href="#ArialMT-101"/>
       <use x="261.230469" xlink:href="#ArialMT-110"/>
       <use x="316.845703" xlink:href="#ArialMT-104"/>
       <use x="372.460938" xlink:href="#ArialMT-111"/>
       <use x="428.076172" xlink:href="#ArialMT-111"/>
       <use x="483.691406" xlink:href="#ArialMT-100"/>
      </g>
     </g>
    </g>
    <g id="xtick_16">
     <g id="line2d_16">
      <path clip-path="url(#pf265fcf667)" d="M 250.295495 282.936797 
L 250.295495 11.136797 
" style="fill:none;stroke:#ffffff;stroke-linecap:round;"/>
     </g>
     <g id="text_16">
      <!-- solderingiron -->
      <g style="fill:#262626;" transform="translate(253.832682 372.588984)rotate(-90)scale(0.14 -0.14)">
       <use xlink:href="#ArialMT-115"/>
       <use x="50" xlink:href="#ArialMT-111"/>
       <use x="105.615234" xlink:href="#ArialMT-108"/>
       <use x="127.832031" xlink:href="#ArialMT-100"/>
       <use x="183.447266" xlink:href="#ArialMT-101"/>
       <use x="239.0625" xlink:href="#ArialMT-114"/>
       <use x="272.363281" xlink:href="#ArialMT-105"/>
       <use x="294.580078" xlink:href="#ArialMT-110"/>
       <use x="350.195312" xlink:href="#ArialMT-103"/>
       <use x="405.810547" xlink:href="#ArialMT-105"/>
       <use x="428.027344" xlink:href="#ArialMT-114"/>
       <use x="461.328125" xlink:href="#ArialMT-111"/>
       <use x="516.943359" xlink:href="#ArialMT-110"/>
      </g>
     </g>
    </g>
    <g id="xtick_17">
     <g id="line2d_17">
      <path clip-path="url(#pf265fcf667)" d="M 261.403656 282.936797 
L 261.403656 11.136797 
" style="fill:none;stroke:#ffffff;stroke-linecap:round;"/>
     </g>
     <g id="text_17">
      <!-- toaster -->
      <g style="fill:#262626;" transform="translate(265.022875 335.233047)rotate(-90)scale(0.14 -0.14)">
       <use xlink:href="#ArialMT-116"/>
       <use x="27.783203" xlink:href="#ArialMT-111"/>
       <use x="83.398438" xlink:href="#ArialMT-97"/>
       <use x="139.013672" xlink:href="#ArialMT-115"/>
       <use x="189.013672" xlink:href="#ArialMT-116"/>
       <use x="216.796875" xlink:href="#ArialMT-101"/>
       <use x="272.412109" xlink:href="#ArialMT-114"/>
      </g>
     </g>
    </g>
    <g id="xtick_18">
     <g id="line2d_18">
      <path clip-path="url(#pf265fcf667)" d="M 272.511818 282.936797 
L 272.511818 11.136797 
" style="fill:none;stroke:#ffffff;stroke-linecap:round;"/>
     </g>
     <g id="text_18">
      <!-- sandwichmaker -->
      <g style="fill:#262626;" transform="translate(276.131037 389.693047)rotate(-90)scale(0.14 -0.14)">
       <use xlink:href="#ArialMT-115"/>
       <use x="50" xlink:href="#ArialMT-97"/>
       <use x="105.615234" xlink:href="#ArialMT-110"/>
       <use x="161.230469" xlink:href="#ArialMT-100"/>
       <use x="216.845703" xlink:href="#ArialMT-119"/>
       <use x="289.0625" xlink:href="#ArialMT-105"/>
       <use x="311.279297" xlink:href="#ArialMT-99"/>
       <use x="361.279297" xlink:href="#ArialMT-104"/>
       <use x="416.894531" xlink:href="#ArialMT-109"/>
       <use x="500.195312" xlink:href="#ArialMT-97"/>
       <use x="555.810547" xlink:href="#ArialMT-107"/>
       <use x="605.810547" xlink:href="#ArialMT-101"/>
       <use x="661.425781" xlink:href="#ArialMT-114"/>
      </g>
     </g>
    </g>
    <g id="xtick_19">
     <g id="line2d_19">
      <path clip-path="url(#pf265fcf667)" d="M 283.61998 282.936797 
L 283.61998 11.136797 
" style="fill:none;stroke:#ffffff;stroke-linecap:round;"/>
     </g>
     <g id="text_19">
      <!-- ledlight -->
      <g style="fill:#262626;" transform="translate(287.157168 336.799297)rotate(-90)scale(0.14 -0.14)">
       <use xlink:href="#ArialMT-108"/>
       <use x="22.216797" xlink:href="#ArialMT-101"/>
       <use x="77.832031" xlink:href="#ArialMT-100"/>
       <use x="133.447266" xlink:href="#ArialMT-108"/>
       <use x="155.664062" xlink:href="#ArialMT-105"/>
       <use x="177.880859" xlink:href="#ArialMT-103"/>
       <use x="233.496094" xlink:href="#ArialMT-104"/>
       <use x="289.111328" xlink:href="#ArialMT-116"/>
      </g>
     </g>
    </g>
    <g id="xtick_20">
     <g id="line2d_20">
      <path clip-path="url(#pf265fcf667)" d="M 294.728142 282.936797 
L 294.728142 11.136797 
" style="fill:none;stroke:#ffffff;stroke-linecap:round;"/>
     </g>
     <g id="text_20">
      <!-- coffeemachine -->
      <g style="fill:#262626;" transform="translate(298.347361 383.239922)rotate(-90)scale(0.14 -0.14)">
       <use xlink:href="#ArialMT-99"/>
       <use x="50" xlink:href="#ArialMT-111"/>
       <use x="105.615234" xlink:href="#ArialMT-102"/>
       <use x="131.648438" xlink:href="#ArialMT-102"/>
       <use x="159.431641" xlink:href="#ArialMT-101"/>
       <use x="215.046875" xlink:href="#ArialMT-101"/>
       <use x="270.662109" xlink:href="#ArialMT-109"/>
       <use x="353.962891" xlink:href="#ArialMT-97"/>
       <use x="409.578125" xlink:href="#ArialMT-99"/>
       <use x="459.578125" xlink:href="#ArialMT-104"/>
       <use x="515.193359" xlink:href="#ArialMT-105"/>
       <use x="537.410156" xlink:href="#ArialMT-110"/>
       <use x="593.025391" xlink:href="#ArialMT-101"/>
      </g>
     </g>
    </g>
    <g id="xtick_21">
     <g id="line2d_21">
      <path clip-path="url(#pf265fcf667)" d="M 305.836304 282.936797 
L 305.836304 11.136797 
" style="fill:none;stroke:#ffffff;stroke-linecap:round;"/>
     </g>
     <g id="text_21">
      <!-- heater -->
      <g style="fill:#262626;" transform="translate(309.455523 332.128984)rotate(-90)scale(0.14 -0.14)">
       <use xlink:href="#ArialMT-104"/>
       <use x="55.615234" xlink:href="#ArialMT-101"/>
       <use x="111.230469" xlink:href="#ArialMT-97"/>
       <use x="166.845703" xlink:href="#ArialMT-116"/>
       <use x="194.628906" xlink:href="#ArialMT-101"/>
       <use x="250.244141" xlink:href="#ArialMT-114"/>
      </g>
     </g>
    </g>
    <g id="xtick_22">
     <g id="line2d_22">
      <path clip-path="url(#pf265fcf667)" d="M 316.944466 282.936797 
L 316.944466 11.136797 
" style="fill:none;stroke:#ffffff;stroke-linecap:round;"/>
     </g>
     <g id="text_22">
      <!-- jigsaw -->
      <g style="fill:#262626;" transform="translate(320.481654 331.339297)rotate(-90)scale(0.14 -0.14)">
       <defs>
        <path d="M 6.546875 61.375 
L 6.546875 71.578125 
L 15.328125 71.578125 
L 15.328125 61.375 
z
M -4.59375 -20.125 
L -2.9375 -12.640625 
Q -0.296875 -13.328125 1.21875 -13.328125 
Q 3.90625 -13.328125 5.21875 -11.546875 
Q 6.546875 -9.765625 6.546875 -2.640625 
L 6.546875 51.859375 
L 15.328125 51.859375 
L 15.328125 -2.828125 
Q 15.328125 -12.40625 12.84375 -16.15625 
Q 9.671875 -21.046875 2.296875 -21.046875 
Q -1.265625 -21.046875 -4.59375 -20.125 
z
" id="ArialMT-106"/>
       </defs>
       <use xlink:href="#ArialMT-106"/>
       <use x="22.216797" xlink:href="#ArialMT-105"/>
       <use x="44.433594" xlink:href="#ArialMT-103"/>
       <use x="100.048828" xlink:href="#ArialMT-115"/>
       <use x="150.048828" xlink:href="#ArialMT-97"/>
       <use x="205.664062" xlink:href="#ArialMT-119"/>
      </g>
     </g>
    </g>
    <g id="xtick_23">
     <g id="line2d_23">
      <path clip-path="url(#pf265fcf667)" d="M 328.052628 282.936797 
L 328.052628 11.136797 
" style="fill:none;stroke:#ffffff;stroke-linecap:round;"/>
     </g>
     <g id="text_23">
      <!-- mixer -->
      <g style="fill:#262626;" transform="translate(331.671847 326.655859)rotate(-90)scale(0.14 -0.14)">
       <defs>
        <path d="M 0.734375 0 
L 19.671875 26.953125 
L 2.15625 51.859375 
L 13.140625 51.859375 
L 21.09375 39.703125 
Q 23.34375 36.234375 24.703125 33.890625 
Q 26.859375 37.109375 28.65625 39.59375 
L 37.40625 51.859375 
L 47.90625 51.859375 
L 29.984375 27.4375 
L 49.265625 0 
L 38.484375 0 
L 27.828125 16.109375 
L 25 20.453125 
L 11.375 0 
z
" id="ArialMT-120"/>
       </defs>
       <use xlink:href="#ArialMT-109"/>
       <use x="83.300781" xlink:href="#ArialMT-105"/>
       <use x="105.517578" xlink:href="#ArialMT-120"/>
       <use x="155.517578" xlink:href="#ArialMT-101"/>
       <use x="211.132812" xlink:href="#ArialMT-114"/>
      </g>
     </g>
    </g>
    <g id="xtick_24">
     <g id="line2d_24">
      <path clip-path="url(#pf265fcf667)" d="M 339.16079 282.936797 
L 339.16079 11.136797 
" style="fill:none;stroke:#ffffff;stroke-linecap:round;"/>
     </g>
     <g id="text_24">
      <!-- gameconsole -->
      <g style="fill:#262626;" transform="translate(342.697977 375.706172)rotate(-90)scale(0.14 -0.14)">
       <use xlink:href="#ArialMT-103"/>
       <use x="55.615234" xlink:href="#ArialMT-97"/>
       <use x="111.230469" xlink:href="#ArialMT-109"/>
       <use x="194.53125" xlink:href="#ArialMT-101"/>
       <use x="250.146484" xlink:href="#ArialMT-99"/>
       <use x="300.146484" xlink:href="#ArialMT-111"/>
       <use x="355.761719" xlink:href="#ArialMT-110"/>
       <use x="411.376953" xlink:href="#ArialMT-115"/>
       <use x="461.376953" xlink:href="#ArialMT-111"/>
       <use x="516.992188" xlink:href="#ArialMT-108"/>
       <use x="539.208984" xlink:href="#ArialMT-101"/>
      </g>
     </g>
    </g>
    <g id="xtick_25">
     <g id="line2d_25">
      <path clip-path="url(#pf265fcf667)" d="M 350.268952 282.936797 
L 350.268952 11.136797 
" style="fill:none;stroke:#ffffff;stroke-linecap:round;"/>
     </g>
     <g id="text_25">
      <!-- hairdryer -->
      <g style="fill:#262626;" transform="translate(353.806139 347.673359)rotate(-90)scale(0.14 -0.14)">
       <use xlink:href="#ArialMT-104"/>
       <use x="55.615234" xlink:href="#ArialMT-97"/>
       <use x="111.230469" xlink:href="#ArialMT-105"/>
       <use x="133.447266" xlink:href="#ArialMT-114"/>
       <use x="166.748047" xlink:href="#ArialMT-100"/>
       <use x="222.363281" xlink:href="#ArialMT-114"/>
       <use x="255.664062" xlink:href="#ArialMT-121"/>
       <use x="305.664062" xlink:href="#ArialMT-101"/>
       <use x="361.279297" xlink:href="#ArialMT-114"/>
      </g>
     </g>
    </g>
    <g id="xtick_26">
     <g id="line2d_26">
      <path clip-path="url(#pf265fcf667)" d="M 361.377114 282.936797 
L 361.377114 11.136797 
" style="fill:none;stroke:#ffffff;stroke-linecap:round;"/>
     </g>
     <g id="text_26">
      <!-- laptop -->
      <g style="fill:#262626;" transform="translate(364.996332 330.578047)rotate(-90)scale(0.14 -0.14)">
       <use xlink:href="#ArialMT-108"/>
       <use x="22.216797" xlink:href="#ArialMT-97"/>
       <use x="77.832031" xlink:href="#ArialMT-112"/>
       <use x="133.447266" xlink:href="#ArialMT-116"/>
       <use x="161.230469" xlink:href="#ArialMT-111"/>
       <use x="216.845703" xlink:href="#ArialMT-112"/>
      </g>
     </g>
    </g>
    <g id="xtick_27">
     <g id="line2d_27">
      <path clip-path="url(#pf265fcf667)" d="M 372.485276 282.936797 
L 372.485276 11.136797 
" style="fill:none;stroke:#ffffff;stroke-linecap:round;"/>
     </g>
     <g id="text_27">
      <!-- iron -->
      <g style="fill:#262626;" transform="translate(376.104494 315.779609)rotate(-90)scale(0.14 -0.14)">
       <use xlink:href="#ArialMT-105"/>
       <use x="22.216797" xlink:href="#ArialMT-114"/>
       <use x="55.517578" xlink:href="#ArialMT-111"/>
       <use x="111.132812" xlink:href="#ArialMT-110"/>
      </g>
     </g>
    </g>
    <g id="xtick_28">
     <g id="line2d_28">
      <path clip-path="url(#pf265fcf667)" d="M 383.593438 282.936797 
L 383.593438 11.136797 
" style="fill:none;stroke:#ffffff;stroke-linecap:round;"/>
     </g>
     <g id="text_28">
      <!-- kettle -->
      <g style="fill:#262626;" transform="translate(387.212656 325.896797)rotate(-90)scale(0.14 -0.14)">
       <use xlink:href="#ArialMT-107"/>
       <use x="50" xlink:href="#ArialMT-101"/>
       <use x="105.615234" xlink:href="#ArialMT-116"/>
       <use x="133.398438" xlink:href="#ArialMT-116"/>
       <use x="161.181641" xlink:href="#ArialMT-108"/>
       <use x="183.398438" xlink:href="#ArialMT-101"/>
      </g>
     </g>
    </g>
    <g id="xtick_29">
     <g id="line2d_29">
      <path clip-path="url(#pf265fcf667)" d="M 394.701599 282.936797 
L 394.701599 11.136797 
" style="fill:none;stroke:#ffffff;stroke-linecap:round;"/>
     </g>
     <g id="text_29">
      <!-- cfl -->
      <g style="fill:#262626;" transform="translate(398.320818 306.436797)rotate(-90)scale(0.14 -0.14)">
       <use xlink:href="#ArialMT-99"/>
       <use x="50" xlink:href="#ArialMT-102"/>
       <use x="77.783203" xlink:href="#ArialMT-108"/>
      </g>
     </g>
    </g>
    <g id="xtick_30">
     <g id="line2d_30">
      <path clip-path="url(#pf265fcf667)" d="M 405.809761 282.936797 
L 405.809761 11.136797 
" style="fill:none;stroke:#ffffff;stroke-linecap:round;"/>
     </g>
     <g id="text_30">
      <!-- halogenfluter -->
      <g style="fill:#262626;" transform="translate(409.432261 373.380859)rotate(-90)scale(0.14 -0.14)">
       <use xlink:href="#ArialMT-104"/>
       <use x="55.615234" xlink:href="#ArialMT-97"/>
       <use x="111.230469" xlink:href="#ArialMT-108"/>
       <use x="133.447266" xlink:href="#ArialMT-111"/>
       <use x="189.0625" xlink:href="#ArialMT-103"/>
       <use x="244.677734" xlink:href="#ArialMT-101"/>
       <use x="300.292969" xlink:href="#ArialMT-110"/>
       <use x="355.908203" xlink:href="#ArialMT-102"/>
       <use x="383.691406" xlink:href="#ArialMT-108"/>
       <use x="405.908203" xlink:href="#ArialMT-117"/>
       <use x="461.523438" xlink:href="#ArialMT-116"/>
       <use x="489.306641" xlink:href="#ArialMT-101"/>
       <use x="544.921875" xlink:href="#ArialMT-114"/>
      </g>
     </g>
    </g>
    <g id="xtick_31">
     <g id="line2d_31">
      <path clip-path="url(#pf265fcf667)" d="M 416.917923 282.936797 
L 416.917923 11.136797 
" style="fill:none;stroke:#ffffff;stroke-linecap:round;"/>
     </g>
     <g id="text_31">
      <!-- washingmachine -->
      <g style="fill:#262626;" transform="translate(420.455111 396.712734)rotate(-90)scale(0.14 -0.14)">
       <use xlink:href="#ArialMT-119"/>
       <use x="72.216797" xlink:href="#ArialMT-97"/>
       <use x="127.832031" xlink:href="#ArialMT-115"/>
       <use x="177.832031" xlink:href="#ArialMT-104"/>
       <use x="233.447266" xlink:href="#ArialMT-105"/>
       <use x="255.664062" xlink:href="#ArialMT-110"/>
       <use x="311.279297" xlink:href="#ArialMT-103"/>
       <use x="366.894531" xlink:href="#ArialMT-109"/>
       <use x="450.195312" xlink:href="#ArialMT-97"/>
       <use x="505.810547" xlink:href="#ArialMT-99"/>
       <use x="555.810547" xlink:href="#ArialMT-104"/>
       <use x="611.425781" xlink:href="#ArialMT-105"/>
       <use x="633.642578" xlink:href="#ArialMT-110"/>
       <use x="689.257812" xlink:href="#ArialMT-101"/>
      </g>
     </g>
    </g>
    <g id="xtick_32">
     <g id="line2d_32">
      <path clip-path="url(#pf265fcf667)" d="M 428.026085 282.936797 
L 428.026085 11.136797 
" style="fill:none;stroke:#ffffff;stroke-linecap:round;"/>
     </g>
     <g id="text_32">
      <!-- multitool -->
      <g style="fill:#262626;" transform="translate(431.645304 344.564922)rotate(-90)scale(0.14 -0.14)">
       <use xlink:href="#ArialMT-109"/>
       <use x="83.300781" xlink:href="#ArialMT-117"/>
       <use x="138.916016" xlink:href="#ArialMT-108"/>
       <use x="161.132812" xlink:href="#ArialMT-116"/>
       <use x="188.916016" xlink:href="#ArialMT-105"/>
       <use x="211.132812" xlink:href="#ArialMT-116"/>
       <use x="238.916016" xlink:href="#ArialMT-111"/>
       <use x="294.53125" xlink:href="#ArialMT-111"/>
       <use x="350.146484" xlink:href="#ArialMT-108"/>
      </g>
     </g>
    </g>
    <g id="xtick_33">
     <g id="line2d_33">
      <path clip-path="url(#pf265fcf667)" d="M 439.134247 282.936797 
L 439.134247 11.136797 
" style="fill:none;stroke:#ffffff;stroke-linecap:round;"/>
     </g>
     <g id="text_33">
      <!-- deepfryer -->
      <g style="fill:#262626;" transform="translate(442.756747 351.575859)rotate(-90)scale(0.14 -0.14)">
       <use xlink:href="#ArialMT-100"/>
       <use x="55.615234" xlink:href="#ArialMT-101"/>
       <use x="111.230469" xlink:href="#ArialMT-101"/>
       <use x="166.845703" xlink:href="#ArialMT-112"/>
       <use x="222.460938" xlink:href="#ArialMT-102"/>
       <use x="250.244141" xlink:href="#ArialMT-114"/>
       <use x="283.544922" xlink:href="#ArialMT-121"/>
       <use x="333.544922" xlink:href="#ArialMT-101"/>
       <use x="389.160156" xlink:href="#ArialMT-114"/>
      </g>
     </g>
    </g>
    <g id="xtick_34">
     <g id="line2d_34">
      <path clip-path="url(#pf265fcf667)" d="M 450.242409 282.936797 
L 450.242409 11.136797 
" style="fill:none;stroke:#ffffff;stroke-linecap:round;"/>
     </g>
     <g id="text_34">
      <!-- tv -->
      <g style="fill:#262626;" transform="translate(453.861628 303.326172)rotate(-90)scale(0.14 -0.14)">
       <use xlink:href="#ArialMT-116"/>
       <use x="27.783203" xlink:href="#ArialMT-118"/>
      </g>
     </g>
    </g>
    <g id="xtick_35">
     <g id="line2d_35">
      <path clip-path="url(#pf265fcf667)" d="M 461.350571 282.936797 
L 461.350571 11.136797 
" style="fill:none;stroke:#ffffff;stroke-linecap:round;"/>
     </g>
     <g id="text_35">
      <!-- flatiron -->
      <g style="fill:#262626;" transform="translate(464.96979 334.454297)rotate(-90)scale(0.14 -0.14)">
       <use xlink:href="#ArialMT-102"/>
       <use x="27.783203" xlink:href="#ArialMT-108"/>
       <use x="50" xlink:href="#ArialMT-97"/>
       <use x="105.615234" xlink:href="#ArialMT-116"/>
       <use x="133.398438" xlink:href="#ArialMT-105"/>
       <use x="155.615234" xlink:href="#ArialMT-114"/>
       <use x="188.916016" xlink:href="#ArialMT-111"/>
       <use x="244.53125" xlink:href="#ArialMT-110"/>
      </g>
     </g>
    </g>
    <g id="xtick_36">
     <g id="line2d_36">
      <path clip-path="url(#pf265fcf667)" d="M 472.458733 282.936797 
L 472.458733 11.136797 
" style="fill:none;stroke:#ffffff;stroke-linecap:round;"/>
     </g>
     <g id="text_36">
      <!-- airpump -->
      <g style="fill:#262626;" transform="translate(476.077952 343.011797)rotate(-90)scale(0.14 -0.14)">
       <use xlink:href="#ArialMT-97"/>
       <use x="55.615234" xlink:href="#ArialMT-105"/>
       <use x="77.832031" xlink:href="#ArialMT-114"/>
       <use x="111.132812" xlink:href="#ArialMT-112"/>
       <use x="166.748047" xlink:href="#ArialMT-117"/>
       <use x="222.363281" xlink:href="#ArialMT-109"/>
       <use x="305.664062" xlink:href="#ArialMT-112"/>
      </g>
     </g>
    </g>
    <g id="xtick_37">
     <g id="line2d_37">
      <path clip-path="url(#pf265fcf667)" d="M 483.566895 282.936797 
L 483.566895 11.136797 
" style="fill:none;stroke:#ffffff;stroke-linecap:round;"/>
     </g>
     <g id="text_37">
      <!-- waterheater -->
      <g style="fill:#262626;" transform="translate(487.186113 366.361172)rotate(-90)scale(0.14 -0.14)">
       <use xlink:href="#ArialMT-119"/>
       <use x="72.216797" xlink:href="#ArialMT-97"/>
       <use x="127.832031" xlink:href="#ArialMT-116"/>
       <use x="155.615234" xlink:href="#ArialMT-101"/>
       <use x="211.230469" xlink:href="#ArialMT-114"/>
       <use x="244.53125" xlink:href="#ArialMT-104"/>
       <use x="300.146484" xlink:href="#ArialMT-101"/>
       <use x="355.761719" xlink:href="#ArialMT-97"/>
       <use x="411.376953" xlink:href="#ArialMT-116"/>
       <use x="439.160156" xlink:href="#ArialMT-101"/>
       <use x="494.775391" xlink:href="#ArialMT-114"/>
      </g>
     </g>
    </g>
    <g id="xtick_38">
     <g id="line2d_38">
      <path clip-path="url(#pf265fcf667)" d="M 494.675057 282.936797 
L 494.675057 11.136797 
" style="fill:none;stroke:#ffffff;stroke-linecap:round;"/>
     </g>
     <g id="text_38">
      <!-- vacuumcleaner -->
      <g style="fill:#262626;" transform="translate(498.294275 387.367734)rotate(-90)scale(0.14 -0.14)">
       <use xlink:href="#ArialMT-118"/>
       <use x="50" xlink:href="#ArialMT-97"/>
       <use x="105.615234" xlink:href="#ArialMT-99"/>
       <use x="155.615234" xlink:href="#ArialMT-117"/>
       <use x="211.230469" xlink:href="#ArialMT-117"/>
       <use x="266.845703" xlink:href="#ArialMT-109"/>
       <use x="350.146484" xlink:href="#ArialMT-99"/>
       <use x="400.146484" xlink:href="#ArialMT-108"/>
       <use x="422.363281" xlink:href="#ArialMT-101"/>
       <use x="477.978516" xlink:href="#ArialMT-97"/>
       <use x="533.59375" xlink:href="#ArialMT-110"/>
       <use x="589.208984" xlink:href="#ArialMT-101"/>
       <use x="644.824219" xlink:href="#ArialMT-114"/>
      </g>
     </g>
    </g>
    <g id="xtick_39">
     <g id="line2d_39">
      <path clip-path="url(#pf265fcf667)" d="M 505.783219 282.936797 
L 505.783219 11.136797 
" style="fill:none;stroke:#ffffff;stroke-linecap:round;"/>
     </g>
     <g id="text_39">
      <!-- hifi -->
      <g style="fill:#262626;" transform="translate(509.402437 310.332734)rotate(-90)scale(0.14 -0.14)">
       <use xlink:href="#ArialMT-104"/>
       <use x="55.615234" xlink:href="#ArialMT-105"/>
       <use x="77.832031" xlink:href="#ArialMT-102"/>
       <use x="105.615234" xlink:href="#ArialMT-105"/>
      </g>
     </g>
    </g>
    <g id="xtick_40">
     <g id="line2d_40">
      <path clip-path="url(#pf265fcf667)" d="M 516.89138 282.936797 
L 516.89138 11.136797 
" style="fill:none;stroke:#ffffff;stroke-linecap:round;"/>
     </g>
     <g id="text_40">
      <!-- laserprinter -->
      <g style="fill:#262626;" transform="translate(520.510599 362.458672)rotate(-90)scale(0.14 -0.14)">
       <use xlink:href="#ArialMT-108"/>
       <use x="22.216797" xlink:href="#ArialMT-97"/>
       <use x="77.832031" xlink:href="#ArialMT-115"/>
       <use x="127.832031" xlink:href="#ArialMT-101"/>
       <use x="183.447266" xlink:href="#ArialMT-114"/>
       <use x="216.748047" xlink:href="#ArialMT-112"/>
       <use x="272.363281" xlink:href="#ArialMT-114"/>
       <use x="305.664062" xlink:href="#ArialMT-105"/>
       <use x="327.880859" xlink:href="#ArialMT-110"/>
       <use x="383.496094" xlink:href="#ArialMT-116"/>
       <use x="411.279297" xlink:href="#ArialMT-101"/>
       <use x="466.894531" xlink:href="#ArialMT-114"/>
      </g>
     </g>
    </g>
    <g id="xtick_41">
     <g id="line2d_41">
      <path clip-path="url(#pf265fcf667)" d="M 527.999542 282.936797 
L 527.999542 11.136797 
" style="fill:none;stroke:#ffffff;stroke-linecap:round;"/>
     </g>
     <g id="text_41">
      <!-- monitor -->
      <g style="fill:#262626;" transform="translate(531.618761 339.115859)rotate(-90)scale(0.14 -0.14)">
       <use xlink:href="#ArialMT-109"/>
       <use x="83.300781" xlink:href="#ArialMT-111"/>
       <use x="138.916016" xlink:href="#ArialMT-110"/>
       <use x="194.53125" xlink:href="#ArialMT-105"/>
       <use x="216.748047" xlink:href="#ArialMT-116"/>
       <use x="244.53125" xlink:href="#ArialMT-111"/>
       <use x="300.146484" xlink:href="#ArialMT-114"/>
      </g>
     </g>
    </g>
    <g id="xtick_42">
     <g id="line2d_42">
      <path clip-path="url(#pf265fcf667)" d="M 539.107704 282.936797 
L 539.107704 11.136797 
" style="fill:none;stroke:#ffffff;stroke-linecap:round;"/>
     </g>
     <g id="text_42">
      <!-- benchgrinder -->
      <g style="fill:#262626;" transform="translate(542.644892 374.153047)rotate(-90)scale(0.14 -0.14)">
       <use xlink:href="#ArialMT-98"/>
       <use x="55.615234" xlink:href="#ArialMT-101"/>
       <use x="111.230469" xlink:href="#ArialMT-110"/>
       <use x="166.845703" xlink:href="#ArialMT-99"/>
       <use x="216.845703" xlink:href="#ArialMT-104"/>
       <use x="272.460938" xlink:href="#ArialMT-103"/>
       <use x="328.076172" xlink:href="#ArialMT-114"/>
       <use x="361.376953" xlink:href="#ArialMT-105"/>
       <use x="383.59375" xlink:href="#ArialMT-110"/>
       <use x="439.208984" xlink:href="#ArialMT-100"/>
       <use x="494.824219" xlink:href="#ArialMT-101"/>
       <use x="550.439453" xlink:href="#ArialMT-114"/>
      </g>
     </g>
    </g>
    <g id="xtick_43">
     <g id="line2d_43">
      <path clip-path="url(#pf265fcf667)" d="M 550.215866 282.936797 
L 550.215866 11.136797 
" style="fill:none;stroke:#ffffff;stroke-linecap:round;"/>
     </g>
     <g id="text_43">
      <!-- desktoppc -->
      <g style="fill:#262626;" transform="translate(553.835085 356.252734)rotate(-90)scale(0.14 -0.14)">
       <use xlink:href="#ArialMT-100"/>
       <use x="55.615234" xlink:href="#ArialMT-101"/>
       <use x="111.230469" xlink:href="#ArialMT-115"/>
       <use x="161.230469" xlink:href="#ArialMT-107"/>
       <use x="211.230469" xlink:href="#ArialMT-116"/>
       <use x="239.013672" xlink:href="#ArialMT-111"/>
       <use x="294.628906" xlink:href="#ArialMT-112"/>
       <use x="350.244141" xlink:href="#ArialMT-112"/>
       <use x="405.859375" xlink:href="#ArialMT-99"/>
      </g>
     </g>
    </g>
    <g id="xtick_44">
     <g id="line2d_44">
      <path clip-path="url(#pf265fcf667)" d="M 561.324028 282.936797 
L 561.324028 11.136797 
" style="fill:none;stroke:#ffffff;stroke-linecap:round;"/>
     </g>
     <g id="text_44">
      <!-- drillingmachine -->
      <g style="fill:#262626;" transform="translate(564.861216 385.810234)rotate(-90)scale(0.14 -0.14)">
       <use xlink:href="#ArialMT-100"/>
       <use x="55.615234" xlink:href="#ArialMT-114"/>
       <use x="88.916016" xlink:href="#ArialMT-105"/>
       <use x="111.132812" xlink:href="#ArialMT-108"/>
       <use x="133.349609" xlink:href="#ArialMT-108"/>
       <use x="155.566406" xlink:href="#ArialMT-105"/>
       <use x="177.783203" xlink:href="#ArialMT-110"/>
       <use x="233.398438" xlink:href="#ArialMT-103"/>
       <use x="289.013672" xlink:href="#ArialMT-109"/>
       <use x="372.314453" xlink:href="#ArialMT-97"/>
       <use x="427.929688" xlink:href="#ArialMT-99"/>
       <use x="477.929688" xlink:href="#ArialMT-104"/>
       <use x="533.544922" xlink:href="#ArialMT-105"/>
       <use x="555.761719" xlink:href="#ArialMT-110"/>
       <use x="611.376953" xlink:href="#ArialMT-101"/>
      </g>
     </g>
    </g>
    <g id="xtick_45">
     <g id="line2d_45">
      <path clip-path="url(#pf265fcf667)" d="M 572.43219 282.936797 
L 572.43219 11.136797 
" style="fill:none;stroke:#ffffff;stroke-linecap:round;"/>
     </g>
     <g id="text_45">
      <!-- massage -->
      <g style="fill:#262626;" transform="translate(575.887346 349.239609)rotate(-90)scale(0.14 -0.14)">
       <use xlink:href="#ArialMT-109"/>
       <use x="83.300781" xlink:href="#ArialMT-97"/>
       <use x="138.916016" xlink:href="#ArialMT-115"/>
       <use x="188.916016" xlink:href="#ArialMT-115"/>
       <use x="238.916016" xlink:href="#ArialMT-97"/>
       <use x="294.53125" xlink:href="#ArialMT-103"/>
       <use x="350.146484" xlink:href="#ArialMT-101"/>
      </g>
     </g>
    </g>
    <g id="xtick_46">
     <g id="line2d_46">
      <path clip-path="url(#pf265fcf667)" d="M 583.540352 282.936797 
L 583.540352 11.136797 
" style="fill:none;stroke:#ffffff;stroke-linecap:round;"/>
     </g>
     <g id="text_46">
      <!-- shredder -->
      <g style="fill:#262626;" transform="translate(587.159571 347.686484)rotate(-90)scale(0.14 -0.14)">
       <use xlink:href="#ArialMT-115"/>
       <use x="50" xlink:href="#ArialMT-104"/>
       <use x="105.615234" xlink:href="#ArialMT-114"/>
       <use x="138.916016" xlink:href="#ArialMT-101"/>
       <use x="194.53125" xlink:href="#ArialMT-100"/>
       <use x="250.146484" xlink:href="#ArialMT-100"/>
       <use x="305.761719" xlink:href="#ArialMT-101"/>
       <use x="361.376953" xlink:href="#ArialMT-114"/>
      </g>
     </g>
    </g>
    <g id="xtick_47">
     <g id="line2d_47">
      <path clip-path="url(#pf265fcf667)" d="M 594.648514 282.936797 
L 594.648514 11.136797 
" style="fill:none;stroke:#ffffff;stroke-linecap:round;"/>
     </g>
     <g id="text_47">
      <!-- fanheater -->
      <g style="fill:#262626;" transform="translate(598.267733 351.588984)rotate(-90)scale(0.14 -0.14)">
       <use xlink:href="#ArialMT-102"/>
       <use x="27.783203" xlink:href="#ArialMT-97"/>
       <use x="83.398438" xlink:href="#ArialMT-110"/>
       <use x="139.013672" xlink:href="#ArialMT-104"/>
       <use x="194.628906" xlink:href="#ArialMT-101"/>
       <use x="250.244141" xlink:href="#ArialMT-97"/>
       <use x="305.859375" xlink:href="#ArialMT-116"/>
       <use x="333.642578" xlink:href="#ArialMT-101"/>
       <use x="389.257812" xlink:href="#ArialMT-114"/>
      </g>
     </g>
    </g>
    <g id="xtick_48">
     <g id="line2d_48">
      <path clip-path="url(#pf265fcf667)" d="M 605.756676 282.936797 
L 605.756676 11.136797 
" style="fill:none;stroke:#ffffff;stroke-linecap:round;"/>
     </g>
     <g id="text_48">
      <!-- stove -->
      <g style="fill:#262626;" transform="translate(609.375894 325.896797)rotate(-90)scale(0.14 -0.14)">
       <use xlink:href="#ArialMT-115"/>
       <use x="50" xlink:href="#ArialMT-116"/>
       <use x="77.783203" xlink:href="#ArialMT-111"/>
       <use x="133.398438" xlink:href="#ArialMT-118"/>
       <use x="183.398438" xlink:href="#ArialMT-101"/>
      </g>
     </g>
    </g>
    <g id="xtick_49">
     <g id="line2d_49">
      <path clip-path="url(#pf265fcf667)" d="M 616.864838 282.936797 
L 616.864838 11.136797 
" style="fill:none;stroke:#ffffff;stroke-linecap:round;"/>
     </g>
     <g id="text_49">
      <!-- treadmill -->
      <g style="fill:#262626;" transform="translate(620.484056 345.337109)rotate(-90)scale(0.14 -0.14)">
       <use xlink:href="#ArialMT-116"/>
       <use x="27.783203" xlink:href="#ArialMT-114"/>
       <use x="61.083984" xlink:href="#ArialMT-101"/>
       <use x="116.699219" xlink:href="#ArialMT-97"/>
       <use x="172.314453" xlink:href="#ArialMT-100"/>
       <use x="227.929688" xlink:href="#ArialMT-109"/>
       <use x="311.230469" xlink:href="#ArialMT-105"/>
       <use x="333.447266" xlink:href="#ArialMT-108"/>
       <use x="355.664062" xlink:href="#ArialMT-108"/>
      </g>
     </g>
    </g>
    <g id="xtick_50">
     <g id="line2d_50">
      <path clip-path="url(#pf265fcf667)" d="M 627.973 282.936797 
L 627.973 11.136797 
" style="fill:none;stroke:#ffffff;stroke-linecap:round;"/>
     </g>
     <g id="text_50">
      <!-- microwave -->
      <g style="fill:#262626;" transform="translate(631.592218 359.337109)rotate(-90)scale(0.14 -0.14)">
       <use xlink:href="#ArialMT-109"/>
       <use x="83.300781" xlink:href="#ArialMT-105"/>
       <use x="105.517578" xlink:href="#ArialMT-99"/>
       <use x="155.517578" xlink:href="#ArialMT-114"/>
       <use x="188.818359" xlink:href="#ArialMT-111"/>
       <use x="244.433594" xlink:href="#ArialMT-119"/>
       <use x="316.650391" xlink:href="#ArialMT-97"/>
       <use x="372.265625" xlink:href="#ArialMT-118"/>
       <use x="422.265625" xlink:href="#ArialMT-101"/>
      </g>
     </g>
    </g>
    <g id="xtick_51">
     <g id="line2d_51">
      <path clip-path="url(#pf265fcf667)" d="M 639.081161 282.936797 
L 639.081161 11.136797 
" style="fill:none;stroke:#ffffff;stroke-linecap:round;"/>
     </g>
     <g id="text_51">
      <!-- sewingmachine -->
      <g style="fill:#262626;" transform="translate(642.618349 388.927422)rotate(-90)scale(0.14 -0.14)">
       <use xlink:href="#ArialMT-115"/>
       <use x="50" xlink:href="#ArialMT-101"/>
       <use x="105.615234" xlink:href="#ArialMT-119"/>
       <use x="177.832031" xlink:href="#ArialMT-105"/>
       <use x="200.048828" xlink:href="#ArialMT-110"/>
       <use x="255.664062" xlink:href="#ArialMT-103"/>
       <use x="311.279297" xlink:href="#ArialMT-109"/>
       <use x="394.580078" xlink:href="#ArialMT-97"/>
       <use x="450.195312" xlink:href="#ArialMT-99"/>
       <use x="500.195312" xlink:href="#ArialMT-104"/>
       <use x="555.810547" xlink:href="#ArialMT-105"/>
       <use x="578.027344" xlink:href="#ArialMT-110"/>
       <use x="633.642578" xlink:href="#ArialMT-101"/>
      </g>
     </g>
    </g>
    <g id="xtick_52">
     <g id="line2d_52">
      <path clip-path="url(#pf265fcf667)" d="M 650.189323 282.936797 
L 650.189323 11.136797 
" style="fill:none;stroke:#ffffff;stroke-linecap:round;"/>
     </g>
     <g id="text_52">
      <!-- desoldering -->
      <g style="fill:#262626;" transform="translate(653.726511 364.816797)rotate(-90)scale(0.14 -0.14)">
       <use xlink:href="#ArialMT-100"/>
       <use x="55.615234" xlink:href="#ArialMT-101"/>
       <use x="111.230469" xlink:href="#ArialMT-115"/>
       <use x="161.230469" xlink:href="#ArialMT-111"/>
       <use x="216.845703" xlink:href="#ArialMT-108"/>
       <use x="239.0625" xlink:href="#ArialMT-100"/>
       <use x="294.677734" xlink:href="#ArialMT-101"/>
       <use x="350.292969" xlink:href="#ArialMT-114"/>
       <use x="383.59375" xlink:href="#ArialMT-105"/>
       <use x="405.810547" xlink:href="#ArialMT-110"/>
       <use x="461.425781" xlink:href="#ArialMT-103"/>
      </g>
     </g>
    </g>
    <g id="xtick_53">
     <g id="line2d_53">
      <path clip-path="url(#pf265fcf667)" d="M 661.297485 282.936797 
L 661.297485 11.136797 
" style="fill:none;stroke:#ffffff;stroke-linecap:round;"/>
     </g>
     <g id="text_53">
      <!-- juicemaker -->
      <g style="fill:#262626;" transform="translate(664.834673 360.122422)rotate(-90)scale(0.14 -0.14)">
       <use xlink:href="#ArialMT-106"/>
       <use x="22.216797" xlink:href="#ArialMT-117"/>
       <use x="77.832031" xlink:href="#ArialMT-105"/>
       <use x="100.048828" xlink:href="#ArialMT-99"/>
       <use x="150.048828" xlink:href="#ArialMT-101"/>
       <use x="205.664062" xlink:href="#ArialMT-109"/>
       <use x="288.964844" xlink:href="#ArialMT-97"/>
       <use x="344.580078" xlink:href="#ArialMT-107"/>
       <use x="394.580078" xlink:href="#ArialMT-101"/>
       <use x="450.195312" xlink:href="#ArialMT-114"/>
      </g>
     </g>
    </g>
    <g id="xtick_54">
     <g id="line2d_54">
      <path clip-path="url(#pf265fcf667)" d="M 672.405647 282.936797 
L 672.405647 11.136797 
" style="fill:none;stroke:#ffffff;stroke-linecap:round;"/>
     </g>
     <g id="text_54">
      <!-- waterpump -->
      <g style="fill:#262626;" transform="translate(676.024866 361.686484)rotate(-90)scale(0.14 -0.14)">
       <use xlink:href="#ArialMT-119"/>
       <use x="72.216797" xlink:href="#ArialMT-97"/>
       <use x="127.832031" xlink:href="#ArialMT-116"/>
       <use x="155.615234" xlink:href="#ArialMT-101"/>
       <use x="211.230469" xlink:href="#ArialMT-114"/>
       <use x="244.53125" xlink:href="#ArialMT-112"/>
       <use x="300.146484" xlink:href="#ArialMT-117"/>
       <use x="355.761719" xlink:href="#ArialMT-109"/>
       <use x="439.0625" xlink:href="#ArialMT-112"/>
      </g>
     </g>
    </g>
    <g id="xtick_55">
     <g id="line2d_55">
      <path clip-path="url(#pf265fcf667)" d="M 683.513809 282.936797 
L 683.513809 11.136797 
" style="fill:none;stroke:#ffffff;stroke-linecap:round;"/>
     </g>
     <g id="text_55">
      <!-- projector -->
      <g style="fill:#262626;" transform="translate(687.050997 346.901172)rotate(-90)scale(0.14 -0.14)">
       <use xlink:href="#ArialMT-112"/>
       <use x="55.615234" xlink:href="#ArialMT-114"/>
       <use x="88.916016" xlink:href="#ArialMT-111"/>
       <use x="144.53125" xlink:href="#ArialMT-106"/>
       <use x="166.748047" xlink:href="#ArialMT-101"/>
       <use x="222.363281" xlink:href="#ArialMT-99"/>
       <use x="272.363281" xlink:href="#ArialMT-116"/>
       <use x="300.146484" xlink:href="#ArialMT-111"/>
       <use x="355.761719" xlink:href="#ArialMT-114"/>
      </g>
     </g>
    </g>
   </g>
   <g id="matplotlib.axis_2">
    <g id="ytick_1">
     <g id="line2d_56">
      <path clip-path="url(#pf265fcf667)" d="M 48.793438 256.776741 
L 718.393438 256.776741 
" style="fill:none;stroke:#ffffff;stroke-linecap:round;"/>
     </g>
     <g id="text_56">
      <!-- 0.4 -->
      <g style="fill:#262626;" transform="translate(24.003438 260.713538)scale(0.11 -0.11)">
       <defs>
        <path d="M 4.15625 35.296875 
Q 4.15625 48 6.765625 55.734375 
Q 9.375 63.484375 14.515625 67.671875 
Q 19.671875 71.875 27.484375 71.875 
Q 33.25 71.875 37.59375 69.546875 
Q 41.9375 67.234375 44.765625 62.859375 
Q 47.609375 58.5 49.21875 52.21875 
Q 50.828125 45.953125 50.828125 35.296875 
Q 50.828125 22.703125 48.234375 14.96875 
Q 45.65625 7.234375 40.5 3 
Q 35.359375 -1.21875 27.484375 -1.21875 
Q 17.140625 -1.21875 11.234375 6.203125 
Q 4.15625 15.140625 4.15625 35.296875 
z
M 13.1875 35.296875 
Q 13.1875 17.671875 17.3125 11.828125 
Q 21.4375 6 27.484375 6 
Q 33.546875 6 37.671875 11.859375 
Q 41.796875 17.71875 41.796875 35.296875 
Q 41.796875 52.984375 37.671875 58.78125 
Q 33.546875 64.59375 27.390625 64.59375 
Q 21.34375 64.59375 17.71875 59.46875 
Q 13.1875 52.9375 13.1875 35.296875 
z
" id="ArialMT-48"/>
        <path d="M 9.078125 0 
L 9.078125 10.015625 
L 19.09375 10.015625 
L 19.09375 0 
z
" id="ArialMT-46"/>
        <path d="M 32.328125 0 
L 32.328125 17.140625 
L 1.265625 17.140625 
L 1.265625 25.203125 
L 33.9375 71.578125 
L 41.109375 71.578125 
L 41.109375 25.203125 
L 50.78125 25.203125 
L 50.78125 17.140625 
L 41.109375 17.140625 
L 41.109375 0 
z
M 32.328125 25.203125 
L 32.328125 57.46875 
L 9.90625 25.203125 
z
" id="ArialMT-52"/>
       </defs>
       <use xlink:href="#ArialMT-48"/>
       <use x="55.615234" xlink:href="#ArialMT-46"/>
       <use x="83.398438" xlink:href="#ArialMT-52"/>
      </g>
     </g>
    </g>
    <g id="ytick_2">
     <g id="line2d_57">
      <path clip-path="url(#pf265fcf667)" d="M 48.793438 215.83675 
L 718.393438 215.83675 
" style="fill:none;stroke:#ffffff;stroke-linecap:round;"/>
     </g>
     <g id="text_57">
      <!-- 0.5 -->
      <g style="fill:#262626;" transform="translate(24.003438 219.773547)scale(0.11 -0.11)">
       <defs>
        <path d="M 4.15625 18.75 
L 13.375 19.53125 
Q 14.40625 12.796875 18.140625 9.390625 
Q 21.875 6 27.15625 6 
Q 33.5 6 37.890625 10.78125 
Q 42.28125 15.578125 42.28125 23.484375 
Q 42.28125 31 38.0625 35.34375 
Q 33.84375 39.703125 27 39.703125 
Q 22.75 39.703125 19.328125 37.765625 
Q 15.921875 35.84375 13.96875 32.765625 
L 5.71875 33.84375 
L 12.640625 70.609375 
L 48.25 70.609375 
L 48.25 62.203125 
L 19.671875 62.203125 
L 15.828125 42.96875 
Q 22.265625 47.46875 29.34375 47.46875 
Q 38.71875 47.46875 45.15625 40.96875 
Q 51.609375 34.46875 51.609375 24.265625 
Q 51.609375 14.546875 45.953125 7.46875 
Q 39.0625 -1.21875 27.15625 -1.21875 
Q 17.390625 -1.21875 11.203125 4.25 
Q 5.03125 9.71875 4.15625 18.75 
z
" id="ArialMT-53"/>
       </defs>
       <use xlink:href="#ArialMT-48"/>
       <use x="55.615234" xlink:href="#ArialMT-46"/>
       <use x="83.398438" xlink:href="#ArialMT-53"/>
      </g>
     </g>
    </g>
    <g id="ytick_3">
     <g id="line2d_58">
      <path clip-path="url(#pf265fcf667)" d="M 48.793438 174.89676 
L 718.393438 174.89676 
" style="fill:none;stroke:#ffffff;stroke-linecap:round;"/>
     </g>
     <g id="text_58">
      <!-- 0.6 -->
      <g style="fill:#262626;" transform="translate(24.003438 178.833557)scale(0.11 -0.11)">
       <defs>
        <path d="M 49.75 54.046875 
L 41.015625 53.375 
Q 39.84375 58.546875 37.703125 60.890625 
Q 34.125 64.65625 28.90625 64.65625 
Q 24.703125 64.65625 21.53125 62.3125 
Q 17.390625 59.28125 14.984375 53.46875 
Q 12.59375 47.65625 12.5 36.921875 
Q 15.671875 41.75 20.265625 44.09375 
Q 24.859375 46.4375 29.890625 46.4375 
Q 38.671875 46.4375 44.84375 39.96875 
Q 51.03125 33.5 51.03125 23.25 
Q 51.03125 16.5 48.125 10.71875 
Q 45.21875 4.9375 40.140625 1.859375 
Q 35.0625 -1.21875 28.609375 -1.21875 
Q 17.625 -1.21875 10.6875 6.859375 
Q 3.765625 14.9375 3.765625 33.5 
Q 3.765625 54.25 11.421875 63.671875 
Q 18.109375 71.875 29.4375 71.875 
Q 37.890625 71.875 43.28125 67.140625 
Q 48.6875 62.40625 49.75 54.046875 
z
M 13.875 23.1875 
Q 13.875 18.65625 15.796875 14.5 
Q 17.71875 10.359375 21.1875 8.171875 
Q 24.65625 6 28.46875 6 
Q 34.03125 6 38.03125 10.484375 
Q 42.046875 14.984375 42.046875 22.703125 
Q 42.046875 30.125 38.078125 34.390625 
Q 34.125 38.671875 28.125 38.671875 
Q 22.171875 38.671875 18.015625 34.390625 
Q 13.875 30.125 13.875 23.1875 
z
" id="ArialMT-54"/>
       </defs>
       <use xlink:href="#ArialMT-48"/>
       <use x="55.615234" xlink:href="#ArialMT-46"/>
       <use x="83.398438" xlink:href="#ArialMT-54"/>
      </g>
     </g>
    </g>
    <g id="ytick_4">
     <g id="line2d_59">
      <path clip-path="url(#pf265fcf667)" d="M 48.793438 133.956769 
L 718.393438 133.956769 
" style="fill:none;stroke:#ffffff;stroke-linecap:round;"/>
     </g>
     <g id="text_59">
      <!-- 0.7 -->
      <g style="fill:#262626;" transform="translate(24.003438 137.893566)scale(0.11 -0.11)">
       <defs>
        <path d="M 4.734375 62.203125 
L 4.734375 70.65625 
L 51.078125 70.65625 
L 51.078125 63.8125 
Q 44.234375 56.546875 37.515625 44.484375 
Q 30.8125 32.421875 27.15625 19.671875 
Q 24.515625 10.6875 23.78125 0 
L 14.75 0 
Q 14.890625 8.453125 18.0625 20.40625 
Q 21.234375 32.375 27.171875 43.484375 
Q 33.109375 54.59375 39.796875 62.203125 
z
" id="ArialMT-55"/>
       </defs>
       <use xlink:href="#ArialMT-48"/>
       <use x="55.615234" xlink:href="#ArialMT-46"/>
       <use x="83.398438" xlink:href="#ArialMT-55"/>
      </g>
     </g>
    </g>
    <g id="ytick_5">
     <g id="line2d_60">
      <path clip-path="url(#pf265fcf667)" d="M 48.793438 93.016778 
L 718.393438 93.016778 
" style="fill:none;stroke:#ffffff;stroke-linecap:round;"/>
     </g>
     <g id="text_60">
      <!-- 0.8 -->
      <g style="fill:#262626;" transform="translate(24.003438 96.953575)scale(0.11 -0.11)">
       <defs>
        <path d="M 17.671875 38.8125 
Q 12.203125 40.828125 9.5625 44.53125 
Q 6.9375 48.25 6.9375 53.421875 
Q 6.9375 61.234375 12.546875 66.546875 
Q 18.171875 71.875 27.484375 71.875 
Q 36.859375 71.875 42.578125 66.421875 
Q 48.296875 60.984375 48.296875 53.171875 
Q 48.296875 48.1875 45.671875 44.5 
Q 43.0625 40.828125 37.75 38.8125 
Q 44.34375 36.671875 47.78125 31.875 
Q 51.21875 27.09375 51.21875 20.453125 
Q 51.21875 11.28125 44.71875 5.03125 
Q 38.234375 -1.21875 27.640625 -1.21875 
Q 17.046875 -1.21875 10.546875 5.046875 
Q 4.046875 11.328125 4.046875 20.703125 
Q 4.046875 27.6875 7.59375 32.390625 
Q 11.140625 37.109375 17.671875 38.8125 
z
M 15.921875 53.71875 
Q 15.921875 48.640625 19.1875 45.40625 
Q 22.46875 42.1875 27.6875 42.1875 
Q 32.765625 42.1875 36.015625 45.375 
Q 39.265625 48.578125 39.265625 53.21875 
Q 39.265625 58.0625 35.90625 61.359375 
Q 32.5625 64.65625 27.59375 64.65625 
Q 22.5625 64.65625 19.234375 61.421875 
Q 15.921875 58.203125 15.921875 53.71875 
z
M 13.09375 20.65625 
Q 13.09375 16.890625 14.875 13.375 
Q 16.65625 9.859375 20.171875 7.921875 
Q 23.6875 6 27.734375 6 
Q 34.03125 6 38.125 10.046875 
Q 42.234375 14.109375 42.234375 20.359375 
Q 42.234375 26.703125 38.015625 30.859375 
Q 33.796875 35.015625 27.4375 35.015625 
Q 21.234375 35.015625 17.15625 30.90625 
Q 13.09375 26.8125 13.09375 20.65625 
z
" id="ArialMT-56"/>
       </defs>
       <use xlink:href="#ArialMT-48"/>
       <use x="55.615234" xlink:href="#ArialMT-46"/>
       <use x="83.398438" xlink:href="#ArialMT-56"/>
      </g>
     </g>
    </g>
    <g id="ytick_6">
     <g id="line2d_61">
      <path clip-path="url(#pf265fcf667)" d="M 48.793438 52.076788 
L 718.393438 52.076788 
" style="fill:none;stroke:#ffffff;stroke-linecap:round;"/>
     </g>
     <g id="text_61">
      <!-- 0.9 -->
      <g style="fill:#262626;" transform="translate(24.003438 56.013584)scale(0.11 -0.11)">
       <defs>
        <path d="M 5.46875 16.546875 
L 13.921875 17.328125 
Q 14.984375 11.375 18.015625 8.6875 
Q 21.046875 6 25.78125 6 
Q 29.828125 6 32.875 7.859375 
Q 35.9375 9.71875 37.890625 12.8125 
Q 39.84375 15.921875 41.15625 21.1875 
Q 42.484375 26.46875 42.484375 31.9375 
Q 42.484375 32.515625 42.4375 33.6875 
Q 39.796875 29.5 35.234375 26.875 
Q 30.671875 24.265625 25.34375 24.265625 
Q 16.453125 24.265625 10.296875 30.703125 
Q 4.15625 37.15625 4.15625 47.703125 
Q 4.15625 58.59375 10.578125 65.234375 
Q 17 71.875 26.65625 71.875 
Q 33.640625 71.875 39.421875 68.109375 
Q 45.21875 64.359375 48.21875 57.390625 
Q 51.21875 50.4375 51.21875 37.25 
Q 51.21875 23.53125 48.234375 15.40625 
Q 45.265625 7.28125 39.375 3.03125 
Q 33.5 -1.21875 25.59375 -1.21875 
Q 17.1875 -1.21875 11.859375 3.4375 
Q 6.546875 8.109375 5.46875 16.546875 
z
M 41.453125 48.140625 
Q 41.453125 55.71875 37.421875 60.15625 
Q 33.40625 64.59375 27.734375 64.59375 
Q 21.875 64.59375 17.53125 59.8125 
Q 13.1875 55.03125 13.1875 47.40625 
Q 13.1875 40.578125 17.3125 36.296875 
Q 21.4375 32.03125 27.484375 32.03125 
Q 33.59375 32.03125 37.515625 36.296875 
Q 41.453125 40.578125 41.453125 48.140625 
z
" id="ArialMT-57"/>
       </defs>
       <use xlink:href="#ArialMT-48"/>
       <use x="55.615234" xlink:href="#ArialMT-46"/>
       <use x="83.398438" xlink:href="#ArialMT-57"/>
      </g>
     </g>
    </g>
    <g id="ytick_7">
     <g id="line2d_62">
      <path clip-path="url(#pf265fcf667)" d="M 48.793438 11.136797 
L 718.393438 11.136797 
" style="fill:none;stroke:#ffffff;stroke-linecap:round;"/>
     </g>
     <g id="text_62">
      <!-- 1.0 -->
      <g style="fill:#262626;" transform="translate(24.003438 15.073594)scale(0.11 -0.11)">
       <defs>
        <path d="M 37.25 0 
L 28.46875 0 
L 28.46875 56 
Q 25.296875 52.984375 20.140625 49.953125 
Q 14.984375 46.921875 10.890625 45.40625 
L 10.890625 53.90625 
Q 18.265625 57.375 23.78125 62.296875 
Q 29.296875 67.234375 31.59375 71.875 
L 37.25 71.875 
z
" id="ArialMT-49"/>
       </defs>
       <use xlink:href="#ArialMT-49"/>
       <use x="55.615234" xlink:href="#ArialMT-46"/>
       <use x="83.398438" xlink:href="#ArialMT-48"/>
      </g>
     </g>
    </g>
    <g id="text_63">
     <!-- F1-score -->
     <g style="fill:#262626;" transform="translate(17.220938 174.651797)rotate(-90)scale(0.14 -0.14)">
      <defs>
       <path d="M 8.203125 0 
L 8.203125 71.578125 
L 56.5 71.578125 
L 56.5 63.140625 
L 17.671875 63.140625 
L 17.671875 40.96875 
L 51.265625 40.96875 
L 51.265625 32.515625 
L 17.671875 32.515625 
L 17.671875 0 
z
" id="ArialMT-70"/>
       <path d="M 3.171875 21.484375 
L 3.171875 30.328125 
L 30.171875 30.328125 
L 30.171875 21.484375 
z
" id="ArialMT-45"/>
      </defs>
      <use xlink:href="#ArialMT-70"/>
      <use x="61.083984" xlink:href="#ArialMT-49"/>
      <use x="116.699219" xlink:href="#ArialMT-45"/>
      <use x="150" xlink:href="#ArialMT-115"/>
      <use x="200" xlink:href="#ArialMT-99"/>
      <use x="250" xlink:href="#ArialMT-111"/>
      <use x="305.615234" xlink:href="#ArialMT-114"/>
      <use x="338.916016" xlink:href="#ArialMT-101"/>
     </g>
    </g>
   </g>
   <g id="patch_3">
    <path clip-path="url(#pf265fcf667)" d="M 79.229801 420.536704 
L 88.116331 420.536704 
L 88.116331 267.647918 
L 79.229801 267.647918 
z
" style="fill:#4c72b0;opacity:0.66;stroke:#ffffff;stroke-linejoin:miter;"/>
   </g>
   <g id="patch_4">
    <path clip-path="url(#pf265fcf667)" d="M 90.337963 420.536704 
L 99.224493 420.536704 
L 99.224493 261.103148 
L 90.337963 261.103148 
z
" style="fill:#4c72b0;opacity:0.66;stroke:#ffffff;stroke-linejoin:miter;"/>
   </g>
   <g id="patch_5">
    <path clip-path="url(#pf265fcf667)" d="M 101.446125 420.536704 
L 110.332654 420.536704 
L 110.332654 250.723766 
L 101.446125 250.723766 
z
" style="fill:#4c72b0;opacity:0.66;stroke:#ffffff;stroke-linejoin:miter;"/>
   </g>
   <g id="patch_6">
    <path clip-path="url(#pf265fcf667)" d="M 112.554287 420.536704 
L 121.440816 420.536704 
L 121.440816 246.193928 
L 112.554287 246.193928 
z
" style="fill:#4c72b0;opacity:0.66;stroke:#ffffff;stroke-linejoin:miter;"/>
   </g>
   <g id="patch_7">
    <path clip-path="url(#pf265fcf667)" d="M 123.662449 420.536704 
L 132.548978 420.536704 
L 132.548978 243.931384 
L 123.662449 243.931384 
z
" style="fill:#4c72b0;opacity:0.66;stroke:#ffffff;stroke-linejoin:miter;"/>
   </g>
   <g id="patch_8">
    <path clip-path="url(#pf265fcf667)" d="M 134.770611 420.536704 
L 143.65714 420.536704 
L 143.65714 236.37029 
L 134.770611 236.37029 
z
" style="fill:#4c72b0;opacity:0.66;stroke:#ffffff;stroke-linejoin:miter;"/>
   </g>
   <g id="patch_9">
    <path clip-path="url(#pf265fcf667)" d="M 145.878773 420.536704 
L 154.765302 420.536704 
L 154.765302 219.380459 
L 145.878773 219.380459 
z
" style="fill:#4c72b0;opacity:0.66;stroke:#ffffff;stroke-linejoin:miter;"/>
   </g>
   <g id="patch_10">
    <path clip-path="url(#pf265fcf667)" d="M 156.986935 420.536704 
L 165.873464 420.536704 
L 165.873464 183.552491 
L 156.986935 183.552491 
z
" style="fill:#4c72b0;opacity:0.66;stroke:#ffffff;stroke-linejoin:miter;"/>
   </g>
   <g id="patch_11">
    <path clip-path="url(#pf265fcf667)" d="M 168.095096 420.536704 
L 176.981626 420.536704 
L 176.981626 171.506766 
L 168.095096 171.506766 
z
" style="fill:#4c72b0;opacity:0.66;stroke:#ffffff;stroke-linejoin:miter;"/>
   </g>
   <g id="patch_12">
    <path clip-path="url(#pf265fcf667)" d="M 179.203258 420.536704 
L 188.089788 420.536704 
L 188.089788 161.619409 
L 179.203258 161.619409 
z
" style="fill:#4c72b0;opacity:0.66;stroke:#ffffff;stroke-linejoin:miter;"/>
   </g>
   <g id="patch_13">
    <path clip-path="url(#pf265fcf667)" d="M 190.31142 420.536704 
L 199.19795 420.536704 
L 199.19795 156.188694 
L 190.31142 156.188694 
z
" style="fill:#4c72b0;opacity:0.66;stroke:#ffffff;stroke-linejoin:miter;"/>
   </g>
   <g id="patch_14">
    <path clip-path="url(#pf265fcf667)" d="M 201.419582 420.536704 
L 210.306112 420.536704 
L 210.306112 155.913202 
L 201.419582 155.913202 
z
" style="fill:#4c72b0;opacity:0.66;stroke:#ffffff;stroke-linejoin:miter;"/>
   </g>
   <g id="patch_15">
    <path clip-path="url(#pf265fcf667)" d="M 212.527744 420.536704 
L 221.414274 420.536704 
L 221.414274 151.364505 
L 212.527744 151.364505 
z
" style="fill:#4c72b0;opacity:0.66;stroke:#ffffff;stroke-linejoin:miter;"/>
   </g>
   <g id="patch_16">
    <path clip-path="url(#pf265fcf667)" d="M 223.635906 420.536704 
L 232.522436 420.536704 
L 232.522436 149.890294 
L 223.635906 149.890294 
z
" style="fill:#4c72b0;opacity:0.66;stroke:#ffffff;stroke-linejoin:miter;"/>
   </g>
   <g id="patch_17">
    <path clip-path="url(#pf265fcf667)" d="M 234.744068 420.536704 
L 243.630597 420.536704 
L 243.630597 144.572871 
L 234.744068 144.572871 
z
" style="fill:#4c72b0;opacity:0.66;stroke:#ffffff;stroke-linejoin:miter;"/>
   </g>
   <g id="patch_18">
    <path clip-path="url(#pf265fcf667)" d="M 245.85223 420.536704 
L 254.738759 420.536704 
L 254.738759 143.543363 
L 245.85223 143.543363 
z
" style="fill:#4c72b0;opacity:0.66;stroke:#ffffff;stroke-linejoin:miter;"/>
   </g>
   <g id="patch_19">
    <path clip-path="url(#pf265fcf667)" d="M 256.960392 420.536704 
L 265.846921 420.536704 
L 265.846921 140.878994 
L 256.960392 140.878994 
z
" style="fill:#4c72b0;opacity:0.66;stroke:#ffffff;stroke-linejoin:miter;"/>
   </g>
   <g id="patch_20">
    <path clip-path="url(#pf265fcf667)" d="M 268.068554 420.536704 
L 276.955083 420.536704 
L 276.955083 134.899661 
L 268.068554 134.899661 
z
" style="fill:#4c72b0;opacity:0.66;stroke:#ffffff;stroke-linejoin:miter;"/>
   </g>
   <g id="patch_21">
    <path clip-path="url(#pf265fcf667)" d="M 279.176716 420.536704 
L 288.063245 420.536704 
L 288.063245 134.456305 
L 279.176716 134.456305 
z
" style="fill:#4c72b0;opacity:0.66;stroke:#ffffff;stroke-linejoin:miter;"/>
   </g>
   <g id="patch_22">
    <path clip-path="url(#pf265fcf667)" d="M 290.284877 420.536704 
L 299.171407 420.536704 
L 299.171407 128.484795 
L 290.284877 128.484795 
z
" style="fill:#4c72b0;opacity:0.66;stroke:#ffffff;stroke-linejoin:miter;"/>
   </g>
   <g id="patch_23">
    <path clip-path="url(#pf265fcf667)" d="M 301.393039 420.536704 
L 310.279569 420.536704 
L 310.279569 123.463951 
L 301.393039 123.463951 
z
" style="fill:#4c72b0;opacity:0.66;stroke:#ffffff;stroke-linejoin:miter;"/>
   </g>
   <g id="patch_24">
    <path clip-path="url(#pf265fcf667)" d="M 312.501201 420.536704 
L 321.387731 420.536704 
L 321.387731 111.979754 
L 312.501201 111.979754 
z
" style="fill:#4c72b0;opacity:0.66;stroke:#ffffff;stroke-linejoin:miter;"/>
   </g>
   <g id="patch_25">
    <path clip-path="url(#pf265fcf667)" d="M 323.609363 420.536704 
L 332.495893 420.536704 
L 332.495893 111.631147 
L 323.609363 111.631147 
z
" style="fill:#4c72b0;opacity:0.66;stroke:#ffffff;stroke-linejoin:miter;"/>
   </g>
   <g id="patch_26">
    <path clip-path="url(#pf265fcf667)" d="M 334.717525 420.536704 
L 343.604055 420.536704 
L 343.604055 109.660829 
L 334.717525 109.660829 
z
" style="fill:#4c72b0;opacity:0.66;stroke:#ffffff;stroke-linejoin:miter;"/>
   </g>
   <g id="patch_27">
    <path clip-path="url(#pf265fcf667)" d="M 345.825687 420.536704 
L 354.712217 420.536704 
L 354.712217 107.952572 
L 345.825687 107.952572 
z
" style="fill:#4c72b0;opacity:0.66;stroke:#ffffff;stroke-linejoin:miter;"/>
   </g>
   <g id="patch_28">
    <path clip-path="url(#pf265fcf667)" d="M 356.933849 420.536704 
L 365.820378 420.536704 
L 365.820378 104.96656 
L 356.933849 104.96656 
z
" style="fill:#4c72b0;opacity:0.66;stroke:#ffffff;stroke-linejoin:miter;"/>
   </g>
   <g id="patch_29">
    <path clip-path="url(#pf265fcf667)" d="M 368.042011 420.536704 
L 376.92854 420.536704 
L 376.92854 100.893129 
L 368.042011 100.893129 
z
" style="fill:#4c72b0;opacity:0.66;stroke:#ffffff;stroke-linejoin:miter;"/>
   </g>
   <g id="patch_30">
    <path clip-path="url(#pf265fcf667)" d="M 379.150173 420.536704 
L 388.036702 420.536704 
L 388.036702 97.722811 
L 379.150173 97.722811 
z
" style="fill:#4c72b0;opacity:0.66;stroke:#ffffff;stroke-linejoin:miter;"/>
   </g>
   <g id="patch_31">
    <path clip-path="url(#pf265fcf667)" d="M 390.258335 420.536704 
L 399.144864 420.536704 
L 399.144864 90.966777 
L 390.258335 90.966777 
z
" style="fill:#4c72b0;opacity:0.66;stroke:#ffffff;stroke-linejoin:miter;"/>
   </g>
   <g id="patch_32">
    <path clip-path="url(#pf265fcf667)" d="M 401.366497 420.536704 
L 410.253026 420.536704 
L 410.253026 85.113798 
L 401.366497 85.113798 
z
" style="fill:#4c72b0;opacity:0.66;stroke:#ffffff;stroke-linejoin:miter;"/>
   </g>
   <g id="patch_33">
    <path clip-path="url(#pf265fcf667)" d="M 412.474658 420.536704 
L 421.361188 420.536704 
L 421.361188 80.715691 
L 412.474658 80.715691 
z
" style="fill:#4c72b0;opacity:0.66;stroke:#ffffff;stroke-linejoin:miter;"/>
   </g>
   <g id="patch_34">
    <path clip-path="url(#pf265fcf667)" d="M 423.58282 420.536704 
L 432.46935 420.536704 
L 432.46935 79.583654 
L 423.58282 79.583654 
z
" style="fill:#4c72b0;opacity:0.66;stroke:#ffffff;stroke-linejoin:miter;"/>
   </g>
   <g id="patch_35">
    <path clip-path="url(#pf265fcf667)" d="M 434.690982 420.536704 
L 443.577512 420.536704 
L 443.577512 72.250404 
L 434.690982 72.250404 
z
" style="fill:#4c72b0;opacity:0.66;stroke:#ffffff;stroke-linejoin:miter;"/>
   </g>
   <g id="patch_36">
    <path clip-path="url(#pf265fcf667)" d="M 445.799144 420.536704 
L 454.685674 420.536704 
L 454.685674 64.648182 
L 445.799144 64.648182 
z
" style="fill:#4c72b0;opacity:0.66;stroke:#ffffff;stroke-linejoin:miter;"/>
   </g>
   <g id="patch_37">
    <path clip-path="url(#pf265fcf667)" d="M 456.907306 420.536704 
L 465.793836 420.536704 
L 465.793836 63.752917 
L 456.907306 63.752917 
z
" style="fill:#4c72b0;opacity:0.66;stroke:#ffffff;stroke-linejoin:miter;"/>
   </g>
   <g id="patch_38">
    <path clip-path="url(#pf265fcf667)" d="M 468.015468 420.536704 
L 476.901998 420.536704 
L 476.901998 63.336873 
L 468.015468 63.336873 
z
" style="fill:#4c72b0;opacity:0.66;stroke:#ffffff;stroke-linejoin:miter;"/>
   </g>
   <g id="patch_39">
    <path clip-path="url(#pf265fcf667)" d="M 479.12363 420.536704 
L 488.010159 420.536704 
L 488.010159 58.703224 
L 479.12363 58.703224 
z
" style="fill:#4c72b0;opacity:0.66;stroke:#ffffff;stroke-linejoin:miter;"/>
   </g>
   <g id="patch_40">
    <path clip-path="url(#pf265fcf667)" d="M 490.231792 420.536704 
L 499.118321 420.536704 
L 499.118321 56.0068 
L 490.231792 56.0068 
z
" style="fill:#4c72b0;opacity:0.66;stroke:#ffffff;stroke-linejoin:miter;"/>
   </g>
   <g id="patch_41">
    <path clip-path="url(#pf265fcf667)" d="M 501.339954 420.536704 
L 510.226483 420.536704 
L 510.226483 54.661962 
L 501.339954 54.661962 
z
" style="fill:#4c72b0;opacity:0.66;stroke:#ffffff;stroke-linejoin:miter;"/>
   </g>
   <g id="patch_42">
    <path clip-path="url(#pf265fcf667)" d="M 512.448116 420.536704 
L 521.334645 420.536704 
L 521.334645 50.921049 
L 512.448116 50.921049 
z
" style="fill:#4c72b0;opacity:0.66;stroke:#ffffff;stroke-linejoin:miter;"/>
   </g>
   <g id="patch_43">
    <path clip-path="url(#pf265fcf667)" d="M 523.556278 420.536704 
L 532.442807 420.536704 
L 532.442807 48.487536 
L 523.556278 48.487536 
z
" style="fill:#4c72b0;opacity:0.66;stroke:#ffffff;stroke-linejoin:miter;"/>
   </g>
   <g id="patch_44">
    <path clip-path="url(#pf265fcf667)" d="M 534.664439 420.536704 
L 543.550969 420.536704 
L 543.550969 45.563474 
L 534.664439 45.563474 
z
" style="fill:#4c72b0;opacity:0.66;stroke:#ffffff;stroke-linejoin:miter;"/>
   </g>
   <g id="patch_45">
    <path clip-path="url(#pf265fcf667)" d="M 545.772601 420.536704 
L 554.659131 420.536704 
L 554.659131 45.262877 
L 545.772601 45.262877 
z
" style="fill:#4c72b0;opacity:0.66;stroke:#ffffff;stroke-linejoin:miter;"/>
   </g>
   <g id="patch_46">
    <path clip-path="url(#pf265fcf667)" d="M 556.880763 420.536704 
L 565.767293 420.536704 
L 565.767293 44.532035 
L 556.880763 44.532035 
z
" style="fill:#4c72b0;opacity:0.66;stroke:#ffffff;stroke-linejoin:miter;"/>
   </g>
   <g id="patch_47">
    <path clip-path="url(#pf265fcf667)" d="M 567.988925 420.536704 
L 576.875455 420.536704 
L 576.875455 32.119471 
L 567.988925 32.119471 
z
" style="fill:#4c72b0;opacity:0.66;stroke:#ffffff;stroke-linejoin:miter;"/>
   </g>
   <g id="patch_48">
    <path clip-path="url(#pf265fcf667)" d="M 579.097087 420.536704 
L 587.983617 420.536704 
L 587.983617 28.735695 
L 579.097087 28.735695 
z
" style="fill:#4c72b0;opacity:0.66;stroke:#ffffff;stroke-linejoin:miter;"/>
   </g>
   <g id="patch_49">
    <path clip-path="url(#pf265fcf667)" d="M 590.205249 420.536704 
L 599.091779 420.536704 
L 599.091779 23.437516 
L 590.205249 23.437516 
z
" style="fill:#4c72b0;opacity:0.66;stroke:#ffffff;stroke-linejoin:miter;"/>
   </g>
   <g id="patch_50">
    <path clip-path="url(#pf265fcf667)" d="M 601.313411 420.536704 
L 610.19994 420.536704 
L 610.19994 23.278089 
L 601.313411 23.278089 
z
" style="fill:#4c72b0;opacity:0.66;stroke:#ffffff;stroke-linejoin:miter;"/>
   </g>
   <g id="patch_51">
    <path clip-path="url(#pf265fcf667)" d="M 612.421573 420.536704 
L 621.308102 420.536704 
L 621.308102 22.573756 
L 612.421573 22.573756 
z
" style="fill:#4c72b0;opacity:0.66;stroke:#ffffff;stroke-linejoin:miter;"/>
   </g>
   <g id="patch_52">
    <path clip-path="url(#pf265fcf667)" d="M 623.529735 420.536704 
L 632.416264 420.536704 
L 632.416264 22.346806 
L 623.529735 22.346806 
z
" style="fill:#4c72b0;opacity:0.66;stroke:#ffffff;stroke-linejoin:miter;"/>
   </g>
   <g id="patch_53">
    <path clip-path="url(#pf265fcf667)" d="M 634.637897 420.536704 
L 643.524426 420.536704 
L 643.524426 17.42728 
L 634.637897 17.42728 
z
" style="fill:#4c72b0;opacity:0.66;stroke:#ffffff;stroke-linejoin:miter;"/>
   </g>
   <g id="patch_54">
    <path clip-path="url(#pf265fcf667)" d="M 645.746059 420.536704 
L 654.632588 420.536704 
L 654.632588 12.853802 
L 645.746059 12.853802 
z
" style="fill:#4c72b0;opacity:0.66;stroke:#ffffff;stroke-linejoin:miter;"/>
   </g>
   <g id="patch_55">
    <path clip-path="url(#pf265fcf667)" d="M 656.854221 420.536704 
L 665.74075 420.536704 
L 665.74075 12.77428 
L 656.854221 12.77428 
z
" style="fill:#4c72b0;opacity:0.66;stroke:#ffffff;stroke-linejoin:miter;"/>
   </g>
   <g id="patch_56">
    <path clip-path="url(#pf265fcf667)" d="M 667.962382 420.536704 
L 676.848912 420.536704 
L 676.848912 12.153036 
L 667.962382 12.153036 
z
" style="fill:#4c72b0;opacity:0.66;stroke:#ffffff;stroke-linejoin:miter;"/>
   </g>
   <g id="patch_57">
    <path clip-path="url(#pf265fcf667)" d="M 679.070544 420.536704 
L 687.957074 420.536704 
L 687.957074 11.616514 
L 679.070544 11.616514 
z
" style="fill:#4c72b0;opacity:0.66;stroke:#ffffff;stroke-linejoin:miter;"/>
   </g>
   <g id="patch_58">
    <path d="M 48.793438 282.936797 
L 48.793438 11.136797 
" style="fill:none;stroke:#ffffff;stroke-linecap:square;stroke-linejoin:miter;stroke-width:1.25;"/>
   </g>
   <g id="patch_59">
    <path d="M 718.393438 282.936797 
L 718.393438 11.136797 
" style="fill:none;stroke:#ffffff;stroke-linecap:square;stroke-linejoin:miter;stroke-width:1.25;"/>
   </g>
   <g id="patch_60">
    <path d="M 48.793438 282.936797 
L 718.393438 282.936797 
" style="fill:none;stroke:#ffffff;stroke-linecap:square;stroke-linejoin:miter;stroke-width:1.25;"/>
   </g>
   <g id="patch_61">
    <path d="M 48.793438 11.136797 
L 718.393438 11.136797 
" style="fill:none;stroke:#ffffff;stroke-linecap:square;stroke-linejoin:miter;stroke-width:1.25;"/>
   </g>
  </g>
 </g>
 <defs>
  <clipPath id="pf265fcf667">
   <rect height="271.8" width="669.6" x="48.793438" y="11.136797"/>
  </clipPath>
 </defs>
</svg>
